<?xml version="1.0" encoding="utf-8"?>
<!-- Generator: Adobe Illustrator 24.1.0, SVG Export Plug-In . SVG Version: 6.00 Build 0)  -->
<svg version="1.1" id="Layer_1" xmlns="http://www.w3.org/2000/svg" xmlns:xlink="http://www.w3.org/1999/xlink" x="0px" y="0px"
	 viewBox="0 0 1801 432" style="enable-background:new 0 0 1801 432;" xml:space="preserve">
<style type="text/css">
	.st0{fill:#f4f4f4;}
</style>
<g>
	<path class="st0" d="M973.3,168.1c-6.9,0-10.3,6-10.3,18c0,1.8,0.1,3.6,0.2,5.5c1,15.8,5.4,23.6,13.2,23.6c6.9,0,10.3-6,10.3-18.1
		c0-1.7-0.1-3.5-0.2-5.5C985.4,176,981,168.1,973.3,168.1z"/>
	<path class="st0" d="M771.7,168.1c-6.9,0-10.3,6-10.3,18c0,1.8,0.1,3.6,0.2,5.5c1,15.8,5.4,23.6,13.2,23.6c6.9,0,10.3-6,10.3-18.1
		c0-1.7-0.1-3.5-0.2-5.5C783.8,176,779.4,168.1,771.7,168.1z"/>
	<g>
		<path class="st0" d="M771.7,168.1c-6.9,0-10.3,6-10.3,18c0,1.8,0.1,3.6,0.2,5.5c1,15.8,5.4,23.6,13.2,23.6c6.9,0,10.3-6,10.3-18.1
			c0-1.7-0.1-3.5-0.2-5.5C783.8,176,779.4,168.1,771.7,168.1z"/>
		<path class="st0" d="M973.3,168.1c-6.9,0-10.3,6-10.3,18c0,1.8,0.1,3.6,0.2,5.5c1,15.8,5.4,23.6,13.2,23.6c6.9,0,10.3-6,10.3-18.1
			c0-1.7-0.1-3.5-0.2-5.5C985.4,176,981,168.1,973.3,168.1z"/>
		<path class="st0" d="M0.4,0.4v395.3h0v36h1800.2v-36V329V0.4H0.4z M1147.1,202.6c2-1.7,4.4-2.6,7.2-2.6c4.4,0,7.5,1.4,9.4,4.1
			c-1.4,1.1-2,2.6-2,4.4c0,1.8,0.9,3.3,2.6,4.3c1.8,1,4.1,1.5,7,1.5s5.2-0.6,6.9-1.7c1.7-1.2,2.6-2.7,2.6-4.5c0-1.8-1.2-3.6-3.5-5.2
			c-2.3-1.6-5.1-3.1-8.4-4.6c-3.3-1.4-6.6-3-9.8-4.7c-3.3-1.7-6.1-3.9-8.4-6.5c-2.3-2.7-3.5-5.7-3.5-8.9c0-5.2,2.5-9.7,7.6-13.5
			c5-3.8,11-5.7,17.9-5.7c6.9,0,12.7,1.3,17.2,3.8c4.6,2.6,6.8,5.8,6.8,9.7c0,2.6-0.8,4.7-2.3,6.1c-1.5,1.4-3.7,2.2-6.5,2.2
			c-2.8,0-5.5-1-8-2.9c1-3.3,0.6-5.8-1.4-7.4c-1.3-1-3-1.6-5.2-1.6c-2.2,0-4,0.5-5.3,1.4c-1.3,0.9-2,2.3-2,4.1
			c0,1.8,1.2,3.6,3.5,5.2c2.3,1.6,5.1,3.2,8.4,4.6c3.3,1.4,6.6,2.9,9.8,4.6c3.3,1.6,6.1,3.8,8.4,6.4c2.3,2.6,3.5,5.6,3.5,9
			c0,5.9-2.8,10.8-8.3,14.5c-5.5,3.8-12.1,5.6-19.9,5.6c-7.7,0-14.2-1.4-19.4-4.2c-5.3-3-7.9-6.6-7.9-11
			C1144.1,206.5,1145.1,204.3,1147.1,202.6z M1091.7,160c1.9,0.2,4,0.4,6.1,0.4v-3.6c0-4.2-1.4-7-4.1-8.4c3-3.4,6.7-5.2,10.9-5.2
			s7.3,1.2,9.2,3.5c1.9,2.3,2.9,5.9,2.9,10.8v2.9h18.1c0.6,0.6,0.8,1.4,0.8,2.4c0,2.5-1.3,4.6-4,6.4c-2.7,1.8-7.3,2.7-14,2.7h-1
			v32.4c0,5,2,7.6,5.9,7.6c4.3,0,8.3-2,12-5.9c1.1,0,2.1,0.5,2.8,1.4c0.8,0.9,1.1,2.1,1.1,3.7c0,3.3-2,6.3-6,9.2
			c-4,2.8-8.9,4.3-14.8,4.3s-10.7-1.5-14.3-4.4c-3.7-3-5.5-7.5-5.5-13.6v-34.6c-2.9-0.1-5-0.8-6.5-2.1c-1.4-1.3-2.2-3-2.2-5
			C1089.1,162.8,1090,161.2,1091.7,160z M1027.6,159c4.2,0,7.3,1.2,9.2,3.5c1.9,2.3,2.9,5.9,2.9,10.8v27.6c0,6.2,3.1,9.2,9.4,9.2
			c5.4,0,9.1-3,11.3-9.1v-28.4c0-4.2-1.4-7-4.1-8.4c3-3.4,6.7-5.2,10.9-5.2s7.3,1.2,9.2,3.5c1.9,2.3,2.9,5.9,2.9,10.8v37.4
			c0,4.3,1.3,7.2,3.8,8.5c-2.9,3.4-6.5,5.2-10.9,5.2c-6.5,0-10.3-3.2-11.4-9.7c-4.1,6.5-9.7,9.7-17,9.7c-7.2,0-12.9-1.8-16.9-5.5
			c-4-3.7-6-9-6-16.1v-30.2c0-4.2-1.4-7-4.1-8.4C1019.8,160.7,1023.4,159,1027.6,159z M952.6,167.5c5.7-5.6,13.1-8.5,22.3-8.5
			c9.2,0,16.6,2.8,22.3,8.5c5.7,5.6,8.5,13.7,8.5,24.2c0,10.5-2.9,18.6-8.6,24.2c-5.7,5.7-13.2,8.5-22.3,8.5
			c-9.2,0-16.6-2.8-22.3-8.5c-5.7-5.7-8.5-13.8-8.5-24.2C944.1,181.2,946.9,173.1,952.6,167.5z M890.1,160c1.9,0.2,4,0.4,6.1,0.4
			v-3.6c0-4.2-1.4-7-4.1-8.4c3-3.4,6.7-5.2,10.9-5.2s7.3,1.2,9.2,3.5c1.9,2.3,2.9,5.9,2.9,10.8v2.9h18.1c0.6,0.6,0.8,1.4,0.8,2.4
			c0,2.5-1.3,4.6-4,6.4c-2.7,1.8-7.3,2.7-14,2.7h-1v32.4c0,5,2,7.6,5.9,7.6c4.3,0,8.3-2,12-5.9c1.1,0,2.1,0.5,2.8,1.4
			c0.8,0.9,1.1,2.1,1.1,3.7c0,3.3-2,6.3-6,9.2c-4,2.8-8.9,4.3-14.8,4.3s-10.7-1.5-14.3-4.4c-3.7-3-5.5-7.5-5.5-13.6v-34.6
			c-2.9-0.1-5-0.8-6.5-2.1c-1.4-1.3-2.2-3-2.2-5C887.5,162.8,888.4,161.2,890.1,160z M826,159c4.2,0,7.3,1.2,9.2,3.5
			c1.9,2.3,2.9,5.9,2.9,10.8v27.6c0,6.2,3.1,9.2,9.4,9.2c5.4,0,9.1-3,11.3-9.1v-28.4c0-4.2-1.4-7-4.1-8.4c3-3.4,6.7-5.2,10.9-5.2
			s7.3,1.2,9.2,3.5c1.9,2.3,2.9,5.9,2.9,10.8v37.4c0,4.3,1.3,7.2,3.8,8.5c-2.9,3.4-6.5,5.2-10.9,5.2c-6.5,0-10.3-3.2-11.4-9.7
			c-4.1,6.5-9.7,9.7-17,9.7c-7.2,0-12.9-1.8-16.9-5.5c-4-3.7-6-9-6-16.1v-30.2c0-4.2-1.4-7-4.1-8.4C818.2,160.7,821.8,159,826,159z
			 M751,167.5c5.7-5.6,13.1-8.5,22.3-8.5c9.2,0,16.6,2.8,22.3,8.5c5.7,5.6,8.5,13.7,8.5,24.2c0,10.5-2.9,18.6-8.6,24.2
			c-5.7,5.7-13.2,8.5-22.3,8.5c-9.2,0-16.6-2.8-22.3-8.5c-5.7-5.7-8.5-13.8-8.5-24.2C742.5,181.2,745.3,173.1,751,167.5z M676.7,129
			c7.9,0,11.9,4.8,11.9,14.3v28.2c2.2-4.1,5.1-7.2,8.9-9.3c3.8-2.1,8.2-3.2,13.2-3.2c5,0,9.1,1.8,12.4,5.5c3.3,3.7,4.9,9,4.9,16.1
			v30.1c0,4.3,1.3,7.2,3.8,8.5c-2.9,3.4-6.5,5.2-10.9,5.2c-7.8,0-11.8-4.8-11.8-14.3v-26.8c0-2.9-0.7-5.1-2.1-6.8
			c-1.4-1.6-3.4-2.5-5.9-2.5c-2.6,0-5,1.2-7.4,3.5c-2.4,2.4-4.1,5.9-5.2,10.5v22.6c0,4.3,1.3,7.2,4,8.5c-3,3.4-6.7,5.2-11,5.2
			c-7.8,0-11.8-4.8-11.8-14.3v-67.6c0-4-1.4-6.8-4.1-8.5C668.7,130.7,672.4,129,676.7,129z M604.5,202.6c2-1.7,4.4-2.6,7.2-2.6
			c4.4,0,7.5,1.4,9.4,4.1c-1.4,1.1-2,2.6-2,4.4c0,1.8,0.9,3.3,2.6,4.3c1.8,1,4.1,1.5,7,1.5c2.9,0,5.2-0.6,6.9-1.7
			c1.7-1.2,2.6-2.7,2.6-4.5c0-1.8-1.2-3.6-3.5-5.2c-2.3-1.6-5.1-3.1-8.4-4.6c-3.3-1.4-6.6-3-9.8-4.7c-3.3-1.7-6.1-3.9-8.4-6.5
			c-2.3-2.7-3.5-5.7-3.5-8.9c0-5.2,2.5-9.7,7.6-13.5c5-3.8,11-5.7,17.9-5.7c6.9,0,12.7,1.3,17.2,3.8c4.6,2.6,6.8,5.8,6.8,9.7
			c0,2.6-0.8,4.7-2.3,6.1c-1.5,1.4-3.7,2.2-6.5,2.2c-2.8,0-5.5-1-8-2.9c1-3.3,0.6-5.8-1.4-7.4c-1.3-1-3-1.6-5.2-1.6
			c-2.2,0-4,0.5-5.3,1.4c-1.3,0.9-2,2.3-2,4.1c0,1.8,1.2,3.6,3.5,5.2c2.3,1.6,5.1,3.2,8.4,4.6c3.3,1.4,6.6,2.9,9.8,4.6
			c3.3,1.6,6.1,3.8,8.4,6.4c2.3,2.6,3.5,5.6,3.5,9c0,5.9-2.8,10.8-8.3,14.5c-5.5,3.8-12.1,5.6-19.9,5.6c-7.7,0-14.2-1.4-19.4-4.2
			c-5.3-3-7.9-6.6-7.9-11C601.5,206.5,602.5,204.3,604.5,202.6z"/>
	</g>
</g>
</svg>
