<?xml version="1.0" encoding="utf-8"?>
<!-- Generator: Adobe Illustrator 24.1.0, SVG Export Plug-In . SVG Version: 6.00 Build 0)  -->
<svg version="1.1" id="Layer_1" xmlns="http://www.w3.org/2000/svg" xmlns:xlink="http://www.w3.org/1999/xlink" x="0px" y="0px"
	 viewBox="0 0 1801 388" style="enable-background:new 0 0 1801 388;" xml:space="preserve">
<style type="text/css">
	.st0{fill:#f4f4f4;}
</style>
<g id="new_cutout">
	<path class="st0" d="M971.1,192c-0.5,0-1,0.2-1.3,0.6c0.5,3.9,0.6,7.1,0.6,9.7v11c0.3,0.3,0.6,0.5,1.3,0.5s1-0.2,1.3-0.6
		c0.3-0.5,0.3-1.3,0.3-2.4v-8.9c0-4-0.2-6.6-0.5-7.9S972.1,192,971.1,192z"/>
	<path class="st0" d="M771,192c-0.5,0-1,0.2-1.3,0.6c0.5,3.9,0.6,7.1,0.6,9.7v11c0.3,0.3,0.6,0.5,1.3,0.5c0.6,0,1-0.2,1.3-0.6
		c0.3-0.5,0.3-1.3,0.3-2.4v-8.9c0-4-0.2-6.6-0.5-7.9S772,192,771,192z"/>
	<g>
		<path class="st0" d="M971.1,192c-0.5,0-1,0.2-1.3,0.6c0.5,3.9,0.6,7.1,0.6,9.7v11c0.3,0.3,0.6,0.5,1.3,0.5s1-0.2,1.3-0.6
			c0.3-0.5,0.3-1.3,0.3-2.4v-8.9c0-4-0.2-6.6-0.5-7.9S972.1,192,971.1,192z"/>
		<path class="st0" d="M771,192c-0.5,0-1,0.2-1.3,0.6c0.5,3.9,0.6,7.1,0.6,9.7v11c0.3,0.3,0.6,0.5,1.3,0.5c0.6,0,1-0.2,1.3-0.6
			c0.3-0.5,0.3-1.3,0.3-2.4v-8.9c0-4-0.2-6.6-0.5-7.9S772,192,771,192z"/>
		<path class="st0" d="M0,0v387.6h1800.2V0H0z M650.8,232.5c-5.3,4.4-12.4,6.5-21.5,6.5c-8.9,0-16-1.6-21-4.8
			c-5-3.2-7.6-8.1-7.6-14.4c0-2.3,0.5-4.5,1.3-6.5c0.8-1.9,1.9-3.2,3.1-4c2.1,1.9,5.2,3.6,9,5c3.9,1.5,8.1,2.1,12.6,2.1
			c1.8,0,2.7-0.5,2.7-1.6c0-0.5,0-1-0.2-1.3c-0.3,0-0.6,0-1,0H628c-8.1,0-14.4-1.8-19.2-5.2c-5.5-3.9-8.2-9.5-8.2-16.6
			c0-7.3,2.4-13.1,7.3-17.4c5.5-4.8,12.9-7.4,22.3-7.4c4.7,0,9,0.5,13.1,1.6s7.4,2.6,10.3,4.4c0.6,1.8,1.1,4.2,1.1,7.6
			c0,5-1.3,9-3.9,11.6c-1.9-1.1-4.4-2.1-7.1-2.9c-2.7-0.8-5.3-1.1-7.6-1.1c-2.1-0.2-3.4,0-4,0.2c-1,0.3-1.5,1-1.5,1.9v0.3
			c0,0.2,0,0.3,0,0.3c0.5,0,1,0,1.6,0h1.3c4.4,0,8.4,0.6,12.1,2.1s6.8,3.7,9.2,6.9c2.6,3.6,4,8.1,4,13.6
			C658.8,221.9,656.1,228.2,650.8,232.5z M732.3,219v1.1c0,5.8-1.5,10.2-4.5,13.4c-3.1,3.2-6.9,4.8-11.6,4.8
			c-4.7,0-8.6-1.5-11.6-4.4c-3.4-3.4-5.2-8.6-5.2-15.3c0-2.9,0.2-5.5,0.3-7.7c0.3-2.3,0.5-3.9,0.5-4.8c0.2-1,0.2-1.8,0.3-2.7
			s0.2-2.1,0.2-3.7s-0.2-2.7-0.6-3.6c-0.5-0.8-1-1.1-1.6-1.1c-0.6,0-1.3,0.2-1.8,0.5l0.8,10.2c-0.6,4.2-1,8.7-1,13.4s1,9,2.9,12.9
			c-3.7,4.2-8.9,6.3-15.7,6.3c-3.9,0-7.1-1.1-10-3.2c-3.2-2.4-4.8-5.8-4.8-9.8v-72.9c1.8-1.1,4-2.1,6.6-2.9c2.6-0.8,5.2-1.1,7.7-1.1
			c4.4,0,7.9,1,10.8,2.7c3.2,2.3,4.8,5.3,4.8,9.5v6c-3.2,0.2-6.5,1.3-9.5,3.1c-2.6,1.6-3.9,3.2-3.9,4.5c0,0.5,0.2,0.8,0.5,1.3
			c0.3,0.3,0.6,0.6,1.1,0.6c1.6-2.1,3.9-3.7,6.8-5.2c2.9-1.5,6.3-2.1,10.3-2.1s7.6,0.6,10.7,1.9c4,1.6,7.1,4.2,9.5,7.6
			c2.7,4.2,4.2,9.4,4.2,15.7l-0.5,12.4c0,3.1,0.3,5.5,1,7.3c0.6,1.8,1.6,3.2,3.2,4.4C732.3,218,732.3,218.5,732.3,219z M794.9,229.3
			c-5.6,6.5-13.2,9.7-22.9,9.7c-9.7,0-17.3-3.1-22.9-9c-6.1-6.6-9.4-15.5-9.4-26.8c0-11.3,2.9-20.2,8.7-26.6
			c5.8-6.5,13.6-9.8,23.1-9.8c9.5,0,17.1,3.4,23.1,10.2c5.8,6.8,8.7,15.7,8.7,26.5C803.3,214.1,800.5,222.8,794.9,229.3z
			 M877.4,218.8v1.1c0,6.1-1.5,10.7-4.4,13.7c-2.6,2.9-6.3,4.4-11,4.4c-2.9,0-5.5-0.8-7.9-2.3s-4.2-3.6-5.3-6.3
			c-1.3,0-1.9,0.6-1.9,2.1c0,1,0.5,1.9,1.3,2.9c-1.3,1.1-2.7,1.9-4.4,2.6c-1.6,0.6-4.2,1-7.6,1c-3.4,0-6.5-0.8-9.7-2.3
			c-3.9-1.8-6.9-4.7-9-8.4c-2.6-4.5-3.9-10.2-3.9-17.1v-15.7c-1.9-3.7-2.9-7.7-2.9-12.3c0-2.3,0.3-4.7,0.8-7.1
			c0.5-2.4,1.5-4.7,2.6-6.6h12.4c4.7,0,8.4,1.3,11,3.7c2.7,2.4,4,6.1,4,11.1v20.2c0.5,4.2,1.1,6.1,2.6,6.1c0.5,0,1-0.2,1.5-0.6
			c-0.3-1.5-0.6-3.6-0.6-6.5V172c4-2.6,8.9-4,14.5-4c3.2,0,6,0.5,8.4,1.5c2.4,1,4.2,2.1,5.5,3.7v32.4c0,6.1,1.3,10.2,4,12.1
			C877.4,217.8,877.4,218.3,877.4,218.8z M932.2,188.5c-0.5,2.4-1.5,4.4-2.4,6.1h-8.1v9.4c0,5.3,2.1,7.9,6.1,7.9h2.4
			c0.8,3.2,1.1,6,1.1,8.2c0,5.8-1.6,10.2-4.8,13.2c-3.2,3.1-8.1,4.5-14.2,4.5s-11.1-1.9-14.8-5.6s-5.5-9.4-5.5-16.8v-17.8h3.2
			c1.9,0,2.9-0.6,2.9-2.1c0-0.2,0-0.5-0.2-0.8h-12.7c-0.8-2.9-1.3-6.1-1.3-9.8c0-3.7,0.3-6.5,0.8-8.7c2.1-1.5,5.2-3.7,8.9-6.9
			c1.1-2.9,2.4-7.3,4.2-13.6c0.2-0.8,0.5-1.6,0.8-2.4c2.9-0.8,6.3-1.3,10.2-1.3s7.6,0.5,11.1,1.3v15.3h9.8c2.3,3.7,3.2,7.9,3.2,12.9
			C933,183.8,932.7,186,932.2,188.5z M995.2,229.3c-5.6,6.5-13.2,9.7-22.9,9.7c-9.7,0-17.3-3.1-22.9-9c-6.1-6.6-9.4-15.5-9.4-26.8
			c0-11.3,2.9-20.2,8.7-26.6c5.8-6.5,13.6-9.8,23.1-9.8s17.1,3.4,23.1,10.2c5.8,6.8,8.7,15.7,8.7,26.5
			C1003.6,214.1,1000.8,222.8,995.2,229.3z M1077.6,218.8v1.1c0,6.1-1.5,10.7-4.4,13.7c-2.6,2.9-6.3,4.4-11,4.4
			c-2.9,0-5.5-0.8-7.9-2.3s-4.2-3.6-5.3-6.3c-1.3,0-1.9,0.6-1.9,2.1c0,1,0.5,1.9,1.3,2.9c-1.3,1.1-2.7,1.9-4.4,2.6
			c-1.6,0.6-4.2,1-7.6,1c-3.4,0-6.5-0.8-9.7-2.3c-3.9-1.8-6.9-4.7-9-8.4c-2.6-4.5-3.9-10.2-3.9-17.1v-15.7
			c-1.9-3.7-2.9-7.7-2.9-12.3c0-2.3,0.3-4.7,0.8-7.1c0.5-2.4,1.5-4.7,2.6-6.6h12.4c4.7,0,8.4,1.3,11,3.7c2.7,2.4,4,6.1,4,11.1v20.2
			c0.5,4.2,1.1,6.1,2.6,6.1c0.5,0,1-0.2,1.5-0.6c-0.3-1.5-0.6-3.6-0.6-6.5V172c4-2.6,8.9-4,14.5-4c3.2,0,6,0.5,8.4,1.5
			c2.4,1,4.2,2.1,5.5,3.7v32.4c0,6.1,1.3,10.2,4,12.1C1077.6,217.8,1077.6,218.3,1077.6,218.8z M1132.5,188.5
			c-0.5,2.4-1.5,4.4-2.4,6.1h-8.1v9.4c0,5.3,2.1,7.9,6.1,7.9h2.4c0.8,3.2,1.1,6,1.1,8.2c0,5.8-1.6,10.2-4.8,13.2
			c-3.2,3.1-8.1,4.5-14.2,4.5c-6.1,0-11.1-1.9-14.8-5.6c-3.7-3.7-5.5-9.4-5.5-16.8v-17.8h3.2c1.9,0,2.9-0.6,2.9-2.1
			c0-0.2,0-0.5-0.2-0.8h-12.7c-0.8-2.9-1.3-6.1-1.3-9.8c0-3.7,0.3-6.5,0.8-8.7c2.1-1.5,5.2-3.7,8.9-6.9c1.1-2.9,2.4-7.3,4.2-13.6
			c0.2-0.8,0.5-1.6,0.8-2.4c2.9-0.8,6.3-1.3,10.2-1.3c3.9,0,7.6,0.5,11.1,1.3v15.3h9.8c2.3,3.7,3.2,7.9,3.2,12.9
			C1133.3,183.8,1133,186,1132.5,188.5z M1191.6,232.5c-5.3,4.4-12.4,6.5-21.5,6.5s-16-1.6-21-4.8c-5-3.2-7.6-8.1-7.6-14.4
			c0-2.3,0.5-4.5,1.3-6.5c0.8-1.9,1.9-3.2,3.1-4c2.1,1.9,5.2,3.6,9,5c3.9,1.5,8.1,2.1,12.6,2.1c1.8,0,2.7-0.5,2.7-1.6
			c0-0.5,0-1-0.2-1.3c-0.3,0-0.6,0-1,0h-0.6c-8.1,0-14.4-1.8-19.2-5.2c-5.5-3.9-8.2-9.5-8.2-16.8c0-7.3,2.4-13.1,7.3-17.4
			c5.5-4.8,12.9-7.4,22.3-7.4c4.7,0,9,0.5,13.1,1.6c4,1.1,7.4,2.6,10.3,4.4c0.6,1.8,1.1,4.2,1.1,7.6c0,5-1.3,9-3.9,11.6
			c-1.9-1.1-4.4-2.1-7.1-2.9c-2.7-0.8-5.3-1.1-7.6-1.1s-3.1,0.2-3.7,0.3c-1,0.3-1.5,1-1.5,1.9v0.3c0,0.2,0,0.3,0,0.3
			c0.5,0,1,0,1.6,0h1.3c4.4,0,8.4,0.6,12.1,2.1s6.8,3.7,9.2,6.9c2.6,3.6,4,8.1,4,13.6C1199.6,221.9,1196.9,228.2,1191.6,232.5z"/>
	</g>
</g>
</svg>
