<?xml version="1.0" encoding="utf-8"?>
<!-- Generator: Adobe Illustrator 24.1.0, SVG Export Plug-In . SVG Version: 6.00 Build 0)  -->
<svg version="1.1" id="Layer_1" xmlns="http://www.w3.org/2000/svg" xmlns:xlink="http://www.w3.org/1999/xlink" x="0px" y="0px"
	 viewBox="0 0 1211 105" style="enable-background:new 0 0 1211 105;" xml:space="preserve">
<style type="text/css">
	.st0{fill:black;}
</style>
<g>
	<g>
		<g>
			<path class="st0" d="M1199.6,22.9c-7.4,0-10.4-4.4-10.4-4.4s-3,4.4-10.4,4.4s-10.4-4.4-10.4-4.4s-3,4.4-10.4,4.4
				s-10.4-4.4-10.4-4.4s-3,4.4-10.4,4.4s-10.4-4.4-10.4-4.4s-3,4.4-10.4,4.4s-10.4-4.4-10.4-4.4s-3,4.4-10.4,4.4
				c-7.4,0-10.4-4.4-10.4-4.4s-3,4.4-10.4,4.4c-7.4,0-10.4-4.4-10.4-4.4s-3,4.4-10.4,4.4s-10.4-4.4-10.4-4.4s-3,4.4-10.4,4.4
				s-10.4-4.4-10.4-4.4s-3,4.4-10.4,4.4s-10.4-4.4-10.4-4.4s-3,4.4-10.4,4.4c-7.4,0-10.4-4.4-10.4-4.4s-3,4.4-10.4,4.4
				c-7.4,0-10.4-4.4-10.4-4.4s-3,4.4-10.4,4.4c-7.4,0-10.4-4.4-10.4-4.4s-3,4.4-10.4,4.4c-7.4,0-10.4-4.4-10.4-4.4s-3,4.4-10.4,4.4
				s-10.4-4.4-10.4-4.4s-3,4.4-10.4,4.4s-10.4-4.4-10.4-4.4s-3,4.4-10.4,4.4s-10.4-4.4-10.4-4.4s-3,4.4-10.4,4.4s-10.4-4.4-10.4-4.4
				s-3,4.4-10.4,4.4c-7.4,0-10.4-4.4-10.4-4.4s-3,4.4-10.4,4.4c-7.4,0-10.4-4.4-10.4-4.4s-3,4.4-10.4,4.4c-7.4,0-10.4-4.4-10.4-4.4
				s-3,4.4-10.4,4.4c-7.4,0-10.4-4.4-10.4-4.4s-3,4.4-10.4,4.4s-10.4-4.4-10.4-4.4s-3,4.4-10.4,4.4s-10.4-4.4-10.4-4.4
				s-3,4.4-10.4,4.4s-10.4-4.4-10.4-4.4s-3,4.4-10.4,4.4c-7.4,0-10.4-4.4-10.4-4.4s-3,4.4-10.4,4.4c-7.4,0-10.4-4.4-10.4-4.4
				s-3,4.4-10.4,4.4c-7.4,0-10.4-4.4-10.4-4.4s-3,4.4-10.4,4.4c-7.4,0-10.4-4.4-10.4-4.4s-3,4.4-10.4,4.4s-10.4-4.4-10.4-4.4
				s-3,4.4-10.4,4.4c-7.4,0-10.4-4.4-10.4-4.4s-3,4.4-10.4,4.4S543,18.5,543,18.5s-3,4.4-10.4,4.4s-10.4-4.4-10.4-4.4
				s-3,4.4-10.4,4.4s-10.4-4.4-10.4-4.4s-3,4.4-10.4,4.4s-10.4-4.4-10.4-4.4s-3,4.4-10.4,4.4c-7.4,0-10.4-4.4-10.4-4.4
				s-3,4.4-10.4,4.4c-7.4,0-10.4-4.4-10.4-4.4s-3,4.4-10.4,4.4c-7.4,0-10.4-4.4-10.4-4.4s-3,4.4-10.4,4.4c-7.4,0-10.4-4.4-10.4-4.4
				s-3,4.4-10.4,4.4s-10.4-4.4-10.4-4.4s-3,4.4-10.4,4.4s-10.4-4.4-10.4-4.4s-3,4.4-10.4,4.4s-10.4-4.4-10.4-4.4s-3,4.4-10.4,4.4
				c-7.4,0-10.4-4.4-10.4-4.4s-3,4.4-10.4,4.4c-7.4,0-10.4-4.4-10.4-4.4s-3,4.4-10.4,4.4c-7.4,0-10.4-4.4-10.4-4.4s-3,4.4-10.4,4.4
				c-7.4,0-10.4-4.4-10.4-4.4s-3,4.4-10.4,4.4s-10.4-4.4-10.4-4.4s-3,4.4-10.4,4.4s-10.4-4.4-10.4-4.4s-3,4.4-10.4,4.4
				s-10.4-4.4-10.4-4.4s-3,4.4-10.4,4.4s-10.4-4.4-10.4-4.4s-3,4.4-10.4,4.4c-7.4,0-10.4-4.4-10.4-4.4s-3,4.4-10.4,4.4
				c-7.4,0-10.4-4.4-10.4-4.4s-3,4.4-10.4,4.4c-7.4,0-10.4-4.4-10.4-4.4s-3,4.4-10.4,4.4c-7.4,0-10.4-4.4-10.4-4.4s-3,4.4-10.4,4.4
				s-10.4-4.4-10.4-4.4s-3,4.4-10.4,4.4s-10.4-4.4-10.4-4.4s-3,4.4-10.4,4.4s-10.4-4.4-10.4-4.4s-3,4.4-10.4,4.4
				C4,22.9,1,18.5,1,18.5v6.8c0,0,2.7,7.5,10.4,7.5c7.7,0,10.4-7.5,10.4-7.5s2.7,7.5,10.4,7.5c7.7,0,10.4-7.5,10.4-7.5
				s2.7,7.5,10.4,7.5c7.7,0,10.4-7.5,10.4-7.5s2.7,7.5,10.4,7.5c7.7,0,10.4-7.5,10.4-7.5s2.7,7.5,10.4,7.5c7.7,0,10.4-7.5,10.4-7.5
				s2.7,7.5,10.4,7.5c7.7,0,10.4-7.5,10.4-7.5s2.7,7.5,10.4,7.5c7.7,0,10.4-7.5,10.4-7.5s2.7,7.5,10.4,7.5c7.7,0,10.4-7.5,10.4-7.5
				s2.7,7.5,10.4,7.5c7.7,0,10.4-7.5,10.4-7.5s2.7,7.5,10.4,7.5c7.7,0,10.4-7.5,10.4-7.5s2.7,7.5,10.4,7.5c7.7,0,10.4-7.5,10.4-7.5
				s2.7,7.5,10.4,7.5c7.7,0,10.4-7.5,10.4-7.5s2.7,7.5,10.4,7.5c7.7,0,10.4-7.5,10.4-7.5s2.7,7.5,10.4,7.5c7.7,0,10.4-7.5,10.4-7.5
				s2.7,7.5,10.4,7.5c7.7,0,10.4-7.5,10.4-7.5s2.7,7.5,10.4,7.5c7.7,0,10.4-7.5,10.4-7.5s2.7,7.5,10.4,7.5c7.7,0,10.4-7.5,10.4-7.5
				s2.7,7.5,10.4,7.5c7.7,0,10.4-7.5,10.4-7.5s2.7,7.5,10.4,7.5c7.7,0,10.4-7.5,10.4-7.5s2.7,7.5,10.4,7.5c7.7,0,10.4-7.5,10.4-7.5
				s2.7,7.5,10.4,7.5c7.7,0,10.4-7.5,10.4-7.5s2.7,7.5,10.4,7.5c7.7,0,10.4-7.5,10.4-7.5s2.7,7.5,10.4,7.5c7.7,0,10.4-7.5,10.4-7.5
				s2.7,7.5,10.4,7.5c7.7,0,10.4-7.5,10.4-7.5s2.7,7.5,10.4,7.5c7.7,0,10.4-7.5,10.4-7.5s2.7,7.5,10.4,7.5c7.7,0,10.4-7.5,10.4-7.5
				s2.7,7.5,10.4,7.5c7.7,0,10.4-7.5,10.4-7.5s2.7,7.5,10.4,7.5c7.7,0,10.4-7.5,10.4-7.5s2.7,7.5,10.4,7.5s10.4-7.5,10.4-7.5
				s2.7,7.5,10.4,7.5c7.7,0,10.4-7.5,10.4-7.5s2.7,7.5,10.4,7.5c7.7,0,10.4-7.5,10.4-7.5s2.7,7.5,10.4,7.5c7.7,0,10.4-7.5,10.4-7.5
				s2.7,7.5,10.4,7.5c7.7,0,10.4-7.5,10.4-7.5s2.7,7.5,10.4,7.5c7.7,0,10.4-7.5,10.4-7.5s2.7,7.5,10.4,7.5c7.7,0,10.4-7.5,10.4-7.5
				s2.7,7.5,10.4,7.5c7.7,0,10.4-7.5,10.4-7.5s2.7,7.5,10.4,7.5c7.7,0,10.4-7.5,10.4-7.5s2.7,7.5,10.4,7.5c7.7,0,10.4-7.5,10.4-7.5
				s2.7,7.5,10.4,7.5c7.7,0,10.4-7.5,10.4-7.5s2.7,7.5,10.4,7.5c7.7,0,10.4-7.5,10.4-7.5s2.7,7.5,10.4,7.5c7.7,0,10.4-7.5,10.4-7.5
				s2.7,7.5,10.4,7.5c7.7,0,10.4-7.5,10.4-7.5s2.7,7.5,10.4,7.5c7.7,0,10.4-7.5,10.4-7.5s2.7,7.5,10.4,7.5s10.4-7.5,10.4-7.5
				s2.7,7.5,10.4,7.5c7.7,0,10.4-7.5,10.4-7.5s2.7,7.5,10.4,7.5c7.7,0,10.4-7.5,10.4-7.5s2.7,7.5,10.4,7.5c7.7,0,10.4-7.5,10.4-7.5
				s2.7,7.5,10.4,7.5c7.7,0,10.4-7.5,10.4-7.5s2.7,7.5,10.4,7.5c7.7,0,10.4-7.5,10.4-7.5s2.7,7.5,10.4,7.5c7.7,0,10.4-7.5,10.4-7.5
				s2.7,7.5,10.4,7.5c7.7,0,10.4-7.5,10.4-7.5s2.7,7.5,10.4,7.5c7.7,0,10.4-7.5,10.4-7.5s2.7,7.5,10.4,7.5c7.7,0,10.4-7.5,10.4-7.5
				s2.7,7.5,10.4,7.5s10.4-7.5,10.4-7.5s2.7,7.5,10.4,7.5s10.4-7.5,10.4-7.5s2.7,7.5,10.4,7.5c7.7,0,10.4-7.5,10.4-7.5
				s2.7,7.5,10.4,7.5c7.7,0,10.4-7.5,10.4-7.5s2.7,7.5,10.4,7.5c6.5,0,9.4-5.2,10.2-6.9v-7.1C1209,19.8,1205.9,22.9,1199.6,22.9z"/>
		</g>
	</g>
	<g>
		<g>
			<path class="st0" d="M1199.6,5.2c-7.4,0-10.4-4.4-10.4-4.4s-3,4.4-10.4,4.4s-10.4-4.4-10.4-4.4s-3,4.4-10.4,4.4
				s-10.4-4.4-10.4-4.4s-3,4.4-10.4,4.4s-10.4-4.4-10.4-4.4s-3,4.4-10.4,4.4s-10.4-4.4-10.4-4.4s-3,4.4-10.4,4.4
				c-7.4,0-10.4-4.4-10.4-4.4s-3,4.4-10.4,4.4c-7.4,0-10.4-4.4-10.4-4.4s-3,4.4-10.4,4.4s-10.4-4.4-10.4-4.4s-3,4.4-10.4,4.4
				s-10.4-4.4-10.4-4.4s-3,4.4-10.4,4.4s-10.4-4.4-10.4-4.4s-3,4.4-10.4,4.4c-7.4,0-10.4-4.4-10.4-4.4s-3,4.4-10.4,4.4
				c-7.4,0-10.4-4.4-10.4-4.4s-3,4.4-10.4,4.4c-7.4,0-10.4-4.4-10.4-4.4s-3,4.4-10.4,4.4c-7.4,0-10.4-4.4-10.4-4.4s-3,4.4-10.4,4.4
				s-10.4-4.4-10.4-4.4s-3,4.4-10.4,4.4s-10.4-4.4-10.4-4.4s-3,4.4-10.4,4.4s-10.4-4.4-10.4-4.4s-3,4.4-10.4,4.4s-10.4-4.4-10.4-4.4
				s-3,4.4-10.4,4.4C817,5.2,814,0.8,814,0.8s-3,4.4-10.4,4.4c-7.4,0-10.4-4.4-10.4-4.4s-3,4.4-10.4,4.4c-7.4,0-10.4-4.4-10.4-4.4
				s-3,4.4-10.4,4.4c-7.4,0-10.4-4.4-10.4-4.4s-3,4.4-10.4,4.4s-10.4-4.4-10.4-4.4s-3,4.4-10.4,4.4s-10.4-4.4-10.4-4.4
				s-3,4.4-10.4,4.4s-10.4-4.4-10.4-4.4s-3,4.4-10.4,4.4c-7.4,0-10.4-4.4-10.4-4.4s-3,4.4-10.4,4.4c-7.4,0-10.4-4.4-10.4-4.4
				s-3,4.4-10.4,4.4c-7.4,0-10.4-4.4-10.4-4.4s-3,4.4-10.4,4.4c-7.4,0-10.4-4.4-10.4-4.4s-3,4.4-10.4,4.4s-10.4-4.4-10.4-4.4
				s-3,4.4-10.4,4.4c-7.4,0-10.4-4.4-10.4-4.4s-3,4.4-10.4,4.4S543,0.8,543,0.8s-3,4.4-10.4,4.4s-10.4-4.4-10.4-4.4s-3,4.4-10.4,4.4
				s-10.4-4.4-10.4-4.4s-3,4.4-10.4,4.4s-10.4-4.4-10.4-4.4s-3,4.4-10.4,4.4c-7.4,0-10.4-4.4-10.4-4.4s-3,4.4-10.4,4.4
				c-7.4,0-10.4-4.4-10.4-4.4s-3,4.4-10.4,4.4c-7.4,0-10.4-4.4-10.4-4.4s-3,4.4-10.4,4.4c-7.4,0-10.4-4.4-10.4-4.4s-3,4.4-10.4,4.4
				s-10.4-4.4-10.4-4.4s-3,4.4-10.4,4.4s-10.4-4.4-10.4-4.4s-3,4.4-10.4,4.4s-10.4-4.4-10.4-4.4s-3,4.4-10.4,4.4
				c-7.4,0-10.4-4.4-10.4-4.4s-3,4.4-10.4,4.4c-7.4,0-10.4-4.4-10.4-4.4s-3,4.4-10.4,4.4C275,5.2,272,0.8,272,0.8s-3,4.4-10.4,4.4
				c-7.4,0-10.4-4.4-10.4-4.4s-3,4.4-10.4,4.4s-10.4-4.4-10.4-4.4s-3,4.4-10.4,4.4s-10.4-4.4-10.4-4.4s-3,4.4-10.4,4.4
				s-10.4-4.4-10.4-4.4s-3,4.4-10.4,4.4s-10.4-4.4-10.4-4.4s-3,4.4-10.4,4.4c-7.4,0-10.4-4.4-10.4-4.4s-3,4.4-10.4,4.4
				c-7.4,0-10.4-4.4-10.4-4.4s-3,4.4-10.4,4.4c-7.4,0-10.4-4.4-10.4-4.4s-3,4.4-10.4,4.4c-7.4,0-10.4-4.4-10.4-4.4s-3,4.4-10.4,4.4
				S63.5,0.8,63.5,0.8s-3,4.4-10.4,4.4S42.7,0.8,42.7,0.8s-3,4.4-10.4,4.4S21.8,0.8,21.8,0.8s-3,4.4-10.4,4.4C4,5.2,1,0.8,1,0.8v6.8
				c0,0,2.7,7.5,10.4,7.5c7.7,0,10.4-7.5,10.4-7.5s2.7,7.5,10.4,7.5c7.7,0,10.4-7.5,10.4-7.5s2.7,7.5,10.4,7.5
				c7.7,0,10.4-7.5,10.4-7.5s2.7,7.5,10.4,7.5c7.7,0,10.4-7.5,10.4-7.5s2.7,7.5,10.4,7.5c7.7,0,10.4-7.5,10.4-7.5s2.7,7.5,10.4,7.5
				c7.7,0,10.4-7.5,10.4-7.5s2.7,7.5,10.4,7.5c7.7,0,10.4-7.5,10.4-7.5s2.7,7.5,10.4,7.5c7.7,0,10.4-7.5,10.4-7.5s2.7,7.5,10.4,7.5
				c7.7,0,10.4-7.5,10.4-7.5s2.7,7.5,10.4,7.5c7.7,0,10.4-7.5,10.4-7.5s2.7,7.5,10.4,7.5c7.7,0,10.4-7.5,10.4-7.5s2.7,7.5,10.4,7.5
				c7.7,0,10.4-7.5,10.4-7.5s2.7,7.5,10.4,7.5c7.7,0,10.4-7.5,10.4-7.5s2.7,7.5,10.4,7.5c7.7,0,10.4-7.5,10.4-7.5s2.7,7.5,10.4,7.5
				c7.7,0,10.4-7.5,10.4-7.5s2.7,7.5,10.4,7.5c7.7,0,10.4-7.5,10.4-7.5s2.7,7.5,10.4,7.5c7.7,0,10.4-7.5,10.4-7.5s2.7,7.5,10.4,7.5
				c7.7,0,10.4-7.5,10.4-7.5s2.7,7.5,10.4,7.5c7.7,0,10.4-7.5,10.4-7.5s2.7,7.5,10.4,7.5c7.7,0,10.4-7.5,10.4-7.5s2.7,7.5,10.4,7.5
				c7.7,0,10.4-7.5,10.4-7.5s2.7,7.5,10.4,7.5c7.7,0,10.4-7.5,10.4-7.5s2.7,7.5,10.4,7.5c7.7,0,10.4-7.5,10.4-7.5s2.7,7.5,10.4,7.5
				c7.7,0,10.4-7.5,10.4-7.5s2.7,7.5,10.4,7.5c7.7,0,10.4-7.5,10.4-7.5s2.7,7.5,10.4,7.5c7.7,0,10.4-7.5,10.4-7.5s2.7,7.5,10.4,7.5
				c7.7,0,10.4-7.5,10.4-7.5s2.7,7.5,10.4,7.5c7.7,0,10.4-7.5,10.4-7.5s2.7,7.5,10.4,7.5s10.4-7.5,10.4-7.5s2.7,7.5,10.4,7.5
				c7.7,0,10.4-7.5,10.4-7.5s2.7,7.5,10.4,7.5c7.7,0,10.4-7.5,10.4-7.5s2.7,7.5,10.4,7.5c7.7,0,10.4-7.5,10.4-7.5s2.7,7.5,10.4,7.5
				c7.7,0,10.4-7.5,10.4-7.5s2.7,7.5,10.4,7.5c7.7,0,10.4-7.5,10.4-7.5s2.7,7.5,10.4,7.5c7.7,0,10.4-7.5,10.4-7.5s2.7,7.5,10.4,7.5
				c7.7,0,10.4-7.5,10.4-7.5s2.7,7.5,10.4,7.5c7.7,0,10.4-7.5,10.4-7.5s2.7,7.5,10.4,7.5c7.7,0,10.4-7.5,10.4-7.5s2.7,7.5,10.4,7.5
				c7.7,0,10.4-7.5,10.4-7.5s2.7,7.5,10.4,7.5c7.7,0,10.4-7.5,10.4-7.5s2.7,7.5,10.4,7.5c7.7,0,10.4-7.5,10.4-7.5s2.7,7.5,10.4,7.5
				c7.7,0,10.4-7.5,10.4-7.5s2.7,7.5,10.4,7.5c7.7,0,10.4-7.5,10.4-7.5s2.7,7.5,10.4,7.5s10.4-7.5,10.4-7.5s2.7,7.5,10.4,7.5
				c7.7,0,10.4-7.5,10.4-7.5s2.7,7.5,10.4,7.5c7.7,0,10.4-7.5,10.4-7.5s2.7,7.5,10.4,7.5c7.7,0,10.4-7.5,10.4-7.5s2.7,7.5,10.4,7.5
				c7.7,0,10.4-7.5,10.4-7.5s2.7,7.5,10.4,7.5c7.7,0,10.4-7.5,10.4-7.5s2.7,7.5,10.4,7.5c7.7,0,10.4-7.5,10.4-7.5s2.7,7.5,10.4,7.5
				c7.7,0,10.4-7.5,10.4-7.5s2.7,7.5,10.4,7.5c7.7,0,10.4-7.5,10.4-7.5s2.7,7.5,10.4,7.5c7.7,0,10.4-7.5,10.4-7.5s2.7,7.5,10.4,7.5
				s10.4-7.5,10.4-7.5s2.7,7.5,10.4,7.5s10.4-7.5,10.4-7.5s2.7,7.5,10.4,7.5c7.7,0,10.4-7.5,10.4-7.5s2.7,7.5,10.4,7.5
				c7.7,0,10.4-7.5,10.4-7.5s2.7,7.5,10.4,7.5c6.5,0,9.4-5.2,10.2-6.9V1.1C1209,2.1,1205.9,5.2,1199.6,5.2z"/>
		</g>
	</g>
	<g>
		<g>
			<path class="st0" d="M1199.6,93.7c-7.4,0-10.4-4.4-10.4-4.4s-3,4.4-10.4,4.4s-10.4-4.4-10.4-4.4s-3,4.4-10.4,4.4
				s-10.4-4.4-10.4-4.4s-3,4.4-10.4,4.4s-10.4-4.4-10.4-4.4s-3,4.4-10.4,4.4s-10.4-4.4-10.4-4.4s-3,4.4-10.4,4.4s-10.4-4.4-10.4-4.4
				s-3,4.4-10.4,4.4c-7.4,0-10.4-4.4-10.4-4.4s-3,4.4-10.4,4.4s-10.4-4.4-10.4-4.4s-3,4.4-10.4,4.4s-10.4-4.4-10.4-4.4
				s-3,4.4-10.4,4.4c-7.4,0-10.4-4.4-10.4-4.4s-3,4.4-10.4,4.4s-10.4-4.4-10.4-4.4s-3,4.4-10.4,4.4s-10.4-4.4-10.4-4.4
				s-3,4.4-10.4,4.4s-10.4-4.4-10.4-4.4s-3,4.4-10.4,4.4c-7.4,0-10.4-4.4-10.4-4.4s-3,4.4-10.4,4.4c-7.4,0-10.4-4.4-10.4-4.4
				s-3,4.4-10.4,4.4c-7.4,0-10.4-4.4-10.4-4.4s-3,4.4-10.4,4.4c-7.4,0-10.4-4.4-10.4-4.4s-3,4.4-10.4,4.4s-10.4-4.4-10.4-4.4
				s-3,4.4-10.4,4.4S814,89.3,814,89.3s-3,4.4-10.4,4.4s-10.4-4.4-10.4-4.4s-3,4.4-10.4,4.4s-10.4-4.4-10.4-4.4s-3,4.4-10.4,4.4
				c-7.4,0-10.4-4.4-10.4-4.4s-3,4.4-10.4,4.4c-7.4,0-10.4-4.4-10.4-4.4s-3,4.4-10.4,4.4c-7.4,0-10.4-4.4-10.4-4.4s-3,4.4-10.4,4.4
				c-7.4,0-10.4-4.4-10.4-4.4s-3,4.4-10.4,4.4s-10.4-4.4-10.4-4.4s-3,4.4-10.4,4.4s-10.4-4.4-10.4-4.4s-3,4.4-10.4,4.4
				s-10.4-4.4-10.4-4.4s-3,4.4-10.4,4.4c-7.4,0-10.4-4.4-10.4-4.4s-3,4.4-10.4,4.4c-7.4,0-10.4-4.4-10.4-4.4s-3,4.4-10.4,4.4
				c-7.4,0-10.4-4.4-10.4-4.4s-3,4.4-10.4,4.4c-7.4,0-10.4-4.4-10.4-4.4s-3,4.4-10.4,4.4c-7.4,0-10.4-4.4-10.4-4.4s-3,4.4-10.4,4.4
				c-7.4,0-10.4-4.4-10.4-4.4s-3,4.4-10.4,4.4s-10.4-4.4-10.4-4.4s-3,4.4-10.4,4.4s-10.4-4.4-10.4-4.4s-3,4.4-10.4,4.4
				s-10.4-4.4-10.4-4.4s-3,4.4-10.4,4.4s-10.4-4.4-10.4-4.4s-3,4.4-10.4,4.4c-7.4,0-10.4-4.4-10.4-4.4s-3,4.4-10.4,4.4
				c-7.4,0-10.4-4.4-10.4-4.4s-3,4.4-10.4,4.4c-7.4,0-10.4-4.4-10.4-4.4s-3,4.4-10.4,4.4c-7.4,0-10.4-4.4-10.4-4.4s-3,4.4-10.4,4.4
				s-10.4-4.4-10.4-4.4s-3,4.4-10.4,4.4s-10.4-4.4-10.4-4.4s-3,4.4-10.4,4.4S272,89.3,272,89.3s-3,4.4-10.4,4.4
				c-7.4,0-10.4-4.4-10.4-4.4s-3,4.4-10.4,4.4c-7.4,0-10.4-4.4-10.4-4.4s-3,4.4-10.4,4.4c-7.4,0-10.4-4.4-10.4-4.4s-3,4.4-10.4,4.4
				c-7.4,0-10.4-4.4-10.4-4.4s-3,4.4-10.4,4.4s-10.4-4.4-10.4-4.4s-3,4.4-10.4,4.4s-10.4-4.4-10.4-4.4s-3,4.4-10.4,4.4
				s-10.4-4.4-10.4-4.4s-3,4.4-10.4,4.4s-10.4-4.4-10.4-4.4s-3,4.4-10.4,4.4c-7.4,0-10.4-4.4-10.4-4.4s-3,4.4-10.4,4.4
				c-7.4,0-10.4-4.4-10.4-4.4s-3,4.4-10.4,4.4c-7.4,0-10.4-4.4-10.4-4.4s-3,4.4-10.4,4.4c-7.4,0-10.4-4.4-10.4-4.4s-3,4.4-10.4,4.4
				S1,89.3,1,89.3v6.8c0,0,2.7,7.5,10.4,7.5c7.7,0,10.4-7.5,10.4-7.5s2.7,7.5,10.4,7.5c7.7,0,10.4-7.5,10.4-7.5s2.7,7.5,10.4,7.5
				c7.7,0,10.4-7.5,10.4-7.5s2.7,7.5,10.4,7.5c7.7,0,10.4-7.5,10.4-7.5s2.7,7.5,10.4,7.5c7.7,0,10.4-7.5,10.4-7.5s2.7,7.5,10.4,7.5
				c7.7,0,10.4-7.5,10.4-7.5s2.7,7.5,10.4,7.5c7.7,0,10.4-7.5,10.4-7.5s2.7,7.5,10.4,7.5c7.7,0,10.4-7.5,10.4-7.5s2.7,7.5,10.4,7.5
				c7.7,0,10.4-7.5,10.4-7.5s2.7,7.5,10.4,7.5c7.7,0,10.4-7.5,10.4-7.5s2.7,7.5,10.4,7.5c7.7,0,10.4-7.5,10.4-7.5s2.7,7.5,10.4,7.5
				c7.7,0,10.4-7.5,10.4-7.5s2.7,7.5,10.4,7.5c7.7,0,10.4-7.5,10.4-7.5s2.7,7.5,10.4,7.5c7.7,0,10.4-7.5,10.4-7.5s2.7,7.5,10.4,7.5
				c7.7,0,10.4-7.5,10.4-7.5s2.7,7.5,10.4,7.5c7.7,0,10.4-7.5,10.4-7.5s2.7,7.5,10.4,7.5c7.7,0,10.4-7.5,10.4-7.5s2.7,7.5,10.4,7.5
				c7.7,0,10.4-7.5,10.4-7.5s2.7,7.5,10.4,7.5c7.7,0,10.4-7.5,10.4-7.5s2.7,7.5,10.4,7.5c7.7,0,10.4-7.5,10.4-7.5s2.7,7.5,10.4,7.5
				c7.7,0,10.4-7.5,10.4-7.5s2.7,7.5,10.4,7.5c7.7,0,10.4-7.5,10.4-7.5s2.7,7.5,10.4,7.5c7.7,0,10.4-7.5,10.4-7.5s2.7,7.5,10.4,7.5
				c7.7,0,10.4-7.5,10.4-7.5s2.7,7.5,10.4,7.5c7.7,0,10.4-7.5,10.4-7.5s2.7,7.5,10.4,7.5c7.7,0,10.4-7.5,10.4-7.5s2.7,7.5,10.4,7.5
				c7.7,0,10.4-7.5,10.4-7.5s2.7,7.5,10.4,7.5c7.7,0,10.4-7.5,10.4-7.5s2.7,7.5,10.4,7.5c7.7,0,10.4-7.5,10.4-7.5s2.7,7.5,10.4,7.5
				c7.7,0,10.4-7.5,10.4-7.5s2.7,7.5,10.4,7.5c7.7,0,10.4-7.5,10.4-7.5s2.7,7.5,10.4,7.5c7.7,0,10.4-7.5,10.4-7.5s2.7,7.5,10.4,7.5
				c7.7,0,10.4-7.5,10.4-7.5s2.7,7.5,10.4,7.5c7.7,0,10.4-7.5,10.4-7.5s2.7,7.5,10.4,7.5c7.7,0,10.4-7.5,10.4-7.5s2.7,7.5,10.4,7.5
				c7.7,0,10.4-7.5,10.4-7.5s2.7,7.5,10.4,7.5c7.7,0,10.4-7.5,10.4-7.5s2.7,7.5,10.4,7.5c7.7,0,10.4-7.5,10.4-7.5s2.7,7.5,10.4,7.5
				c7.7,0,10.4-7.5,10.4-7.5s2.7,7.5,10.4,7.5c7.7,0,10.4-7.5,10.4-7.5s2.7,7.5,10.4,7.5s10.4-7.5,10.4-7.5s2.7,7.5,10.4,7.5
				c7.7,0,10.4-7.5,10.4-7.5s2.7,7.5,10.4,7.5c7.7,0,10.4-7.5,10.4-7.5s2.7,7.5,10.4,7.5c7.7,0,10.4-7.5,10.4-7.5s2.7,7.5,10.4,7.5
				c7.7,0,10.4-7.5,10.4-7.5s2.7,7.5,10.4,7.5c7.7,0,10.4-7.5,10.4-7.5s2.7,7.5,10.4,7.5c7.7,0,10.4-7.5,10.4-7.5s2.7,7.5,10.4,7.5
				c7.7,0,10.4-7.5,10.4-7.5s2.7,7.5,10.4,7.5c7.7,0,10.4-7.5,10.4-7.5s2.7,7.5,10.4,7.5s10.4-7.5,10.4-7.5s2.7,7.5,10.4,7.5
				s10.4-7.5,10.4-7.5s2.7,7.5,10.4,7.5c7.7,0,10.4-7.5,10.4-7.5s2.7,7.5,10.4,7.5c7.7,0,10.4-7.5,10.4-7.5s2.7,7.5,10.4,7.5
				s10.4-7.5,10.4-7.5s2.7,7.5,10.4,7.5s10.4-7.5,10.4-7.5s2.7,7.5,10.4,7.5c7.7,0,10.4-7.5,10.4-7.5s2.7,7.5,10.4,7.5
				s10.4-7.5,10.4-7.5s2.7,7.5,10.4,7.5c6.5,0,9.4-5.2,10.2-6.9v-7.1C1209,90.6,1205.9,93.7,1199.6,93.7z"/>
		</g>
	</g>
	<g>
		<g>
			<path class="st0" d="M1199.6,76c-7.4,0-10.4-4.4-10.4-4.4s-3,4.4-10.4,4.4s-10.4-4.4-10.4-4.4s-3,4.4-10.4,4.4
				s-10.4-4.4-10.4-4.4s-3,4.4-10.4,4.4s-10.4-4.4-10.4-4.4s-3,4.4-10.4,4.4s-10.4-4.4-10.4-4.4s-3,4.4-10.4,4.4s-10.4-4.4-10.4-4.4
				s-3,4.4-10.4,4.4c-7.4,0-10.4-4.4-10.4-4.4s-3,4.4-10.4,4.4s-10.4-4.4-10.4-4.4s-3,4.4-10.4,4.4s-10.4-4.4-10.4-4.4
				s-3,4.4-10.4,4.4c-7.4,0-10.4-4.4-10.4-4.4s-3,4.4-10.4,4.4s-10.4-4.4-10.4-4.4s-3,4.4-10.4,4.4s-10.4-4.4-10.4-4.4
				s-3,4.4-10.4,4.4s-10.4-4.4-10.4-4.4s-3,4.4-10.4,4.4c-7.4,0-10.4-4.4-10.4-4.4s-3,4.4-10.4,4.4c-7.4,0-10.4-4.4-10.4-4.4
				s-3,4.4-10.4,4.4c-7.4,0-10.4-4.4-10.4-4.4s-3,4.4-10.4,4.4c-7.4,0-10.4-4.4-10.4-4.4s-3,4.4-10.4,4.4s-10.4-4.4-10.4-4.4
				s-3,4.4-10.4,4.4S814,71.6,814,71.6s-3,4.4-10.4,4.4s-10.4-4.4-10.4-4.4s-3,4.4-10.4,4.4s-10.4-4.4-10.4-4.4s-3,4.4-10.4,4.4
				c-7.4,0-10.4-4.4-10.4-4.4s-3,4.4-10.4,4.4c-7.4,0-10.4-4.4-10.4-4.4s-3,4.4-10.4,4.4c-7.4,0-10.4-4.4-10.4-4.4s-3,4.4-10.4,4.4
				c-7.4,0-10.4-4.4-10.4-4.4s-3,4.4-10.4,4.4s-10.4-4.4-10.4-4.4s-3,4.4-10.4,4.4s-10.4-4.4-10.4-4.4s-3,4.4-10.4,4.4
				s-10.4-4.4-10.4-4.4s-3,4.4-10.4,4.4c-7.4,0-10.4-4.4-10.4-4.4s-3,4.4-10.4,4.4c-7.4,0-10.4-4.4-10.4-4.4s-3,4.4-10.4,4.4
				c-7.4,0-10.4-4.4-10.4-4.4s-3,4.4-10.4,4.4c-7.4,0-10.4-4.4-10.4-4.4s-3,4.4-10.4,4.4c-7.4,0-10.4-4.4-10.4-4.4s-3,4.4-10.4,4.4
				c-7.4,0-10.4-4.4-10.4-4.4s-3,4.4-10.4,4.4s-10.4-4.4-10.4-4.4s-3,4.4-10.4,4.4s-10.4-4.4-10.4-4.4s-3,4.4-10.4,4.4
				s-10.4-4.4-10.4-4.4s-3,4.4-10.4,4.4s-10.4-4.4-10.4-4.4s-3,4.4-10.4,4.4c-7.4,0-10.4-4.4-10.4-4.4s-3,4.4-10.4,4.4
				c-7.4,0-10.4-4.4-10.4-4.4s-3,4.4-10.4,4.4c-7.4,0-10.4-4.4-10.4-4.4s-3,4.4-10.4,4.4c-7.4,0-10.4-4.4-10.4-4.4s-3,4.4-10.4,4.4
				s-10.4-4.4-10.4-4.4s-3,4.4-10.4,4.4s-10.4-4.4-10.4-4.4s-3,4.4-10.4,4.4S272,71.6,272,71.6s-3,4.4-10.4,4.4
				c-7.4,0-10.4-4.4-10.4-4.4s-3,4.4-10.4,4.4c-7.4,0-10.4-4.4-10.4-4.4s-3,4.4-10.4,4.4c-7.4,0-10.4-4.4-10.4-4.4s-3,4.4-10.4,4.4
				c-7.4,0-10.4-4.4-10.4-4.4s-3,4.4-10.4,4.4s-10.4-4.4-10.4-4.4s-3,4.4-10.4,4.4s-10.4-4.4-10.4-4.4s-3,4.4-10.4,4.4
				s-10.4-4.4-10.4-4.4s-3,4.4-10.4,4.4s-10.4-4.4-10.4-4.4s-3,4.4-10.4,4.4c-7.4,0-10.4-4.4-10.4-4.4S81.4,76,74,76
				c-7.4,0-10.4-4.4-10.4-4.4s-3,4.4-10.4,4.4c-7.4,0-10.4-4.4-10.4-4.4s-3,4.4-10.4,4.4c-7.4,0-10.4-4.4-10.4-4.4s-3,4.4-10.4,4.4
				S1,71.6,1,71.6v6.8c0,0,2.7,7.5,10.4,7.5c7.7,0,10.4-7.5,10.4-7.5s2.7,7.5,10.4,7.5c7.7,0,10.4-7.5,10.4-7.5s2.7,7.5,10.4,7.5
				c7.7,0,10.4-7.5,10.4-7.5s2.7,7.5,10.4,7.5c7.7,0,10.4-7.5,10.4-7.5s2.7,7.5,10.4,7.5c7.7,0,10.4-7.5,10.4-7.5s2.7,7.5,10.4,7.5
				c7.7,0,10.4-7.5,10.4-7.5s2.7,7.5,10.4,7.5c7.7,0,10.4-7.5,10.4-7.5s2.7,7.5,10.4,7.5c7.7,0,10.4-7.5,10.4-7.5s2.7,7.5,10.4,7.5
				c7.7,0,10.4-7.5,10.4-7.5s2.7,7.5,10.4,7.5c7.7,0,10.4-7.5,10.4-7.5s2.7,7.5,10.4,7.5c7.7,0,10.4-7.5,10.4-7.5s2.7,7.5,10.4,7.5
				c7.7,0,10.4-7.5,10.4-7.5s2.7,7.5,10.4,7.5c7.7,0,10.4-7.5,10.4-7.5s2.7,7.5,10.4,7.5c7.7,0,10.4-7.5,10.4-7.5s2.7,7.5,10.4,7.5
				c7.7,0,10.4-7.5,10.4-7.5s2.7,7.5,10.4,7.5c7.7,0,10.4-7.5,10.4-7.5s2.7,7.5,10.4,7.5c7.7,0,10.4-7.5,10.4-7.5s2.7,7.5,10.4,7.5
				c7.7,0,10.4-7.5,10.4-7.5s2.7,7.5,10.4,7.5c7.7,0,10.4-7.5,10.4-7.5s2.7,7.5,10.4,7.5c7.7,0,10.4-7.5,10.4-7.5s2.7,7.5,10.4,7.5
				c7.7,0,10.4-7.5,10.4-7.5s2.7,7.5,10.4,7.5c7.7,0,10.4-7.5,10.4-7.5s2.7,7.5,10.4,7.5c7.7,0,10.4-7.5,10.4-7.5s2.7,7.5,10.4,7.5
				c7.7,0,10.4-7.5,10.4-7.5s2.7,7.5,10.4,7.5c7.7,0,10.4-7.5,10.4-7.5s2.7,7.5,10.4,7.5c7.7,0,10.4-7.5,10.4-7.5s2.7,7.5,10.4,7.5
				c7.7,0,10.4-7.5,10.4-7.5s2.7,7.5,10.4,7.5c7.7,0,10.4-7.5,10.4-7.5s2.7,7.5,10.4,7.5c7.7,0,10.4-7.5,10.4-7.5s2.7,7.5,10.4,7.5
				c7.7,0,10.4-7.5,10.4-7.5s2.7,7.5,10.4,7.5c7.7,0,10.4-7.5,10.4-7.5s2.7,7.5,10.4,7.5c7.7,0,10.4-7.5,10.4-7.5s2.7,7.5,10.4,7.5
				c7.7,0,10.4-7.5,10.4-7.5s2.7,7.5,10.4,7.5c7.7,0,10.4-7.5,10.4-7.5s2.7,7.5,10.4,7.5c7.7,0,10.4-7.5,10.4-7.5s2.7,7.5,10.4,7.5
				c7.7,0,10.4-7.5,10.4-7.5s2.7,7.5,10.4,7.5c7.7,0,10.4-7.5,10.4-7.5s2.7,7.5,10.4,7.5c7.7,0,10.4-7.5,10.4-7.5s2.7,7.5,10.4,7.5
				c7.7,0,10.4-7.5,10.4-7.5s2.7,7.5,10.4,7.5c7.7,0,10.4-7.5,10.4-7.5s2.7,7.5,10.4,7.5s10.4-7.5,10.4-7.5s2.7,7.5,10.4,7.5
				c7.7,0,10.4-7.5,10.4-7.5s2.7,7.5,10.4,7.5c7.7,0,10.4-7.5,10.4-7.5s2.7,7.5,10.4,7.5c7.7,0,10.4-7.5,10.4-7.5s2.7,7.5,10.4,7.5
				c7.7,0,10.4-7.5,10.4-7.5s2.7,7.5,10.4,7.5c7.7,0,10.4-7.5,10.4-7.5s2.7,7.5,10.4,7.5c7.7,0,10.4-7.5,10.4-7.5s2.7,7.5,10.4,7.5
				c7.7,0,10.4-7.5,10.4-7.5s2.7,7.5,10.4,7.5c7.7,0,10.4-7.5,10.4-7.5s2.7,7.5,10.4,7.5s10.4-7.5,10.4-7.5s2.7,7.5,10.4,7.5
				s10.4-7.5,10.4-7.5s2.7,7.5,10.4,7.5c7.7,0,10.4-7.5,10.4-7.5s2.7,7.5,10.4,7.5c7.7,0,10.4-7.5,10.4-7.5s2.7,7.5,10.4,7.5
				s10.4-7.5,10.4-7.5s2.7,7.5,10.4,7.5s10.4-7.5,10.4-7.5s2.7,7.5,10.4,7.5c7.7,0,10.4-7.5,10.4-7.5s2.7,7.5,10.4,7.5
				s10.4-7.5,10.4-7.5s2.7,7.5,10.4,7.5c6.5,0,9.4-5.2,10.2-6.9v-7.1C1209,72.9,1205.9,76,1199.6,76z"/>
		</g>
	</g>
	<g>
		<g>
			<path class="st0" d="M1199.6,58.3c-7.4,0-10.4-4.4-10.4-4.4s-3,4.4-10.4,4.4s-10.4-4.4-10.4-4.4s-3,4.4-10.4,4.4
				s-10.4-4.4-10.4-4.4s-3,4.4-10.4,4.4s-10.4-4.4-10.4-4.4s-3,4.4-10.4,4.4s-10.4-4.4-10.4-4.4s-3,4.4-10.4,4.4s-10.4-4.4-10.4-4.4
				s-3,4.4-10.4,4.4c-7.4,0-10.4-4.4-10.4-4.4s-3,4.4-10.4,4.4s-10.4-4.4-10.4-4.4s-3,4.4-10.4,4.4s-10.4-4.4-10.4-4.4
				s-3,4.4-10.4,4.4c-7.4,0-10.4-4.4-10.4-4.4s-3,4.4-10.4,4.4s-10.4-4.4-10.4-4.4s-3,4.4-10.4,4.4s-10.4-4.4-10.4-4.4
				s-3,4.4-10.4,4.4s-10.4-4.4-10.4-4.4s-3,4.4-10.4,4.4c-7.4,0-10.4-4.4-10.4-4.4s-3,4.4-10.4,4.4c-7.4,0-10.4-4.4-10.4-4.4
				s-3,4.4-10.4,4.4c-7.4,0-10.4-4.4-10.4-4.4s-3,4.4-10.4,4.4c-7.4,0-10.4-4.4-10.4-4.4s-3,4.4-10.4,4.4s-10.4-4.4-10.4-4.4
				s-3,4.4-10.4,4.4S814,53.9,814,53.9s-3,4.4-10.4,4.4s-10.4-4.4-10.4-4.4s-3,4.4-10.4,4.4s-10.4-4.4-10.4-4.4s-3,4.4-10.4,4.4
				c-7.4,0-10.4-4.4-10.4-4.4s-3,4.4-10.4,4.4c-7.4,0-10.4-4.4-10.4-4.4s-3,4.4-10.4,4.4c-7.4,0-10.4-4.4-10.4-4.4s-3,4.4-10.4,4.4
				c-7.4,0-10.4-4.4-10.4-4.4s-3,4.4-10.4,4.4s-10.4-4.4-10.4-4.4s-3,4.4-10.4,4.4s-10.4-4.4-10.4-4.4s-3,4.4-10.4,4.4
				s-10.4-4.4-10.4-4.4s-3,4.4-10.4,4.4c-7.4,0-10.4-4.4-10.4-4.4s-3,4.4-10.4,4.4c-7.4,0-10.4-4.4-10.4-4.4s-3,4.4-10.4,4.4
				c-7.4,0-10.4-4.4-10.4-4.4s-3,4.4-10.4,4.4c-7.4,0-10.4-4.4-10.4-4.4s-3,4.4-10.4,4.4c-7.4,0-10.4-4.4-10.4-4.4s-3,4.4-10.4,4.4
				c-7.4,0-10.4-4.4-10.4-4.4s-3,4.4-10.4,4.4s-10.4-4.4-10.4-4.4s-3,4.4-10.4,4.4s-10.4-4.4-10.4-4.4s-3,4.4-10.4,4.4
				s-10.4-4.4-10.4-4.4s-3,4.4-10.4,4.4s-10.4-4.4-10.4-4.4s-3,4.4-10.4,4.4c-7.4,0-10.4-4.4-10.4-4.4s-3,4.4-10.4,4.4
				c-7.4,0-10.4-4.4-10.4-4.4s-3,4.4-10.4,4.4c-7.4,0-10.4-4.4-10.4-4.4s-3,4.4-10.4,4.4c-7.4,0-10.4-4.4-10.4-4.4s-3,4.4-10.4,4.4
				s-10.4-4.4-10.4-4.4s-3,4.4-10.4,4.4s-10.4-4.4-10.4-4.4s-3,4.4-10.4,4.4S272,53.9,272,53.9s-3,4.4-10.4,4.4
				c-7.4,0-10.4-4.4-10.4-4.4s-3,4.4-10.4,4.4c-7.4,0-10.4-4.4-10.4-4.4s-3,4.4-10.4,4.4c-7.4,0-10.4-4.4-10.4-4.4s-3,4.4-10.4,4.4
				c-7.4,0-10.4-4.4-10.4-4.4s-3,4.4-10.4,4.4s-10.4-4.4-10.4-4.4s-3,4.4-10.4,4.4s-10.4-4.4-10.4-4.4s-3,4.4-10.4,4.4
				s-10.4-4.4-10.4-4.4s-3,4.4-10.4,4.4s-10.4-4.4-10.4-4.4s-3,4.4-10.4,4.4c-7.4,0-10.4-4.4-10.4-4.4s-3,4.4-10.4,4.4
				c-7.4,0-10.4-4.4-10.4-4.4s-3,4.4-10.4,4.4c-7.4,0-10.4-4.4-10.4-4.4s-3,4.4-10.4,4.4c-7.4,0-10.4-4.4-10.4-4.4s-3,4.4-10.4,4.4
				S1,53.9,1,53.9v6.8c0,0,2.7,7.5,10.4,7.5c7.7,0,10.4-7.5,10.4-7.5s2.7,7.5,10.4,7.5c7.7,0,10.4-7.5,10.4-7.5s2.7,7.5,10.4,7.5
				c7.7,0,10.4-7.5,10.4-7.5s2.7,7.5,10.4,7.5c7.7,0,10.4-7.5,10.4-7.5s2.7,7.5,10.4,7.5c7.7,0,10.4-7.5,10.4-7.5s2.7,7.5,10.4,7.5
				c7.7,0,10.4-7.5,10.4-7.5s2.7,7.5,10.4,7.5c7.7,0,10.4-7.5,10.4-7.5s2.7,7.5,10.4,7.5c7.7,0,10.4-7.5,10.4-7.5s2.7,7.5,10.4,7.5
				c7.7,0,10.4-7.5,10.4-7.5s2.7,7.5,10.4,7.5c7.7,0,10.4-7.5,10.4-7.5s2.7,7.5,10.4,7.5c7.7,0,10.4-7.5,10.4-7.5s2.7,7.5,10.4,7.5
				c7.7,0,10.4-7.5,10.4-7.5s2.7,7.5,10.4,7.5c7.7,0,10.4-7.5,10.4-7.5s2.7,7.5,10.4,7.5c7.7,0,10.4-7.5,10.4-7.5s2.7,7.5,10.4,7.5
				c7.7,0,10.4-7.5,10.4-7.5s2.7,7.5,10.4,7.5c7.7,0,10.4-7.5,10.4-7.5s2.7,7.5,10.4,7.5c7.7,0,10.4-7.5,10.4-7.5s2.7,7.5,10.4,7.5
				c7.7,0,10.4-7.5,10.4-7.5s2.7,7.5,10.4,7.5c7.7,0,10.4-7.5,10.4-7.5s2.7,7.5,10.4,7.5c7.7,0,10.4-7.5,10.4-7.5s2.7,7.5,10.4,7.5
				c7.7,0,10.4-7.5,10.4-7.5s2.7,7.5,10.4,7.5c7.7,0,10.4-7.5,10.4-7.5s2.7,7.5,10.4,7.5c7.7,0,10.4-7.5,10.4-7.5s2.7,7.5,10.4,7.5
				c7.7,0,10.4-7.5,10.4-7.5s2.7,7.5,10.4,7.5c7.7,0,10.4-7.5,10.4-7.5s2.7,7.5,10.4,7.5c7.7,0,10.4-7.5,10.4-7.5s2.7,7.5,10.4,7.5
				c7.7,0,10.4-7.5,10.4-7.5s2.7,7.5,10.4,7.5c7.7,0,10.4-7.5,10.4-7.5s2.7,7.5,10.4,7.5c7.7,0,10.4-7.5,10.4-7.5s2.7,7.5,10.4,7.5
				c7.7,0,10.4-7.5,10.4-7.5s2.7,7.5,10.4,7.5c7.7,0,10.4-7.5,10.4-7.5s2.7,7.5,10.4,7.5c7.7,0,10.4-7.5,10.4-7.5s2.7,7.5,10.4,7.5
				c7.7,0,10.4-7.5,10.4-7.5s2.7,7.5,10.4,7.5c7.7,0,10.4-7.5,10.4-7.5s2.7,7.5,10.4,7.5c7.7,0,10.4-7.5,10.4-7.5s2.7,7.5,10.4,7.5
				c7.7,0,10.4-7.5,10.4-7.5s2.7,7.5,10.4,7.5c7.7,0,10.4-7.5,10.4-7.5s2.7,7.5,10.4,7.5c7.7,0,10.4-7.5,10.4-7.5s2.7,7.5,10.4,7.5
				c7.7,0,10.4-7.5,10.4-7.5s2.7,7.5,10.4,7.5c7.7,0,10.4-7.5,10.4-7.5s2.7,7.5,10.4,7.5s10.4-7.5,10.4-7.5s2.7,7.5,10.4,7.5
				c7.7,0,10.4-7.5,10.4-7.5s2.7,7.5,10.4,7.5c7.7,0,10.4-7.5,10.4-7.5s2.7,7.5,10.4,7.5c7.7,0,10.4-7.5,10.4-7.5s2.7,7.5,10.4,7.5
				c7.7,0,10.4-7.5,10.4-7.5s2.7,7.5,10.4,7.5c7.7,0,10.4-7.5,10.4-7.5s2.7,7.5,10.4,7.5c7.7,0,10.4-7.5,10.4-7.5s2.7,7.5,10.4,7.5
				c7.7,0,10.4-7.5,10.4-7.5s2.7,7.5,10.4,7.5c7.7,0,10.4-7.5,10.4-7.5s2.7,7.5,10.4,7.5s10.4-7.5,10.4-7.5s2.7,7.5,10.4,7.5
				s10.4-7.5,10.4-7.5s2.7,7.5,10.4,7.5c7.7,0,10.4-7.5,10.4-7.5s2.7,7.5,10.4,7.5c7.7,0,10.4-7.5,10.4-7.5s2.7,7.5,10.4,7.5
				s10.4-7.5,10.4-7.5s2.7,7.5,10.4,7.5s10.4-7.5,10.4-7.5s2.7,7.5,10.4,7.5c7.7,0,10.4-7.5,10.4-7.5s2.7,7.5,10.4,7.5
				s10.4-7.5,10.4-7.5s2.7,7.5,10.4,7.5c6.5,0,9.4-5.2,10.2-6.9v-7.1C1209,55.2,1205.9,58.3,1199.6,58.3z"/>
		</g>
	</g>
	<g>
		<g>
			<path class="st0" d="M1199.6,40.6c-7.4,0-10.4-4.4-10.4-4.4s-3,4.4-10.4,4.4s-10.4-4.4-10.4-4.4s-3,4.4-10.4,4.4
				s-10.4-4.4-10.4-4.4s-3,4.4-10.4,4.4s-10.4-4.4-10.4-4.4s-3,4.4-10.4,4.4s-10.4-4.4-10.4-4.4s-3,4.4-10.4,4.4s-10.4-4.4-10.4-4.4
				s-3,4.4-10.4,4.4c-7.4,0-10.4-4.4-10.4-4.4s-3,4.4-10.4,4.4s-10.4-4.4-10.4-4.4s-3,4.4-10.4,4.4s-10.4-4.4-10.4-4.4
				s-3,4.4-10.4,4.4c-7.4,0-10.4-4.4-10.4-4.4s-3,4.4-10.4,4.4s-10.4-4.4-10.4-4.4s-3,4.4-10.4,4.4s-10.4-4.4-10.4-4.4
				s-3,4.4-10.4,4.4s-10.4-4.4-10.4-4.4s-3,4.4-10.4,4.4c-7.4,0-10.4-4.4-10.4-4.4s-3,4.4-10.4,4.4c-7.4,0-10.4-4.4-10.4-4.4
				s-3,4.4-10.4,4.4c-7.4,0-10.4-4.4-10.4-4.4s-3,4.4-10.4,4.4c-7.4,0-10.4-4.4-10.4-4.4s-3,4.4-10.4,4.4s-10.4-4.4-10.4-4.4
				s-3,4.4-10.4,4.4S814,36.2,814,36.2s-3,4.4-10.4,4.4s-10.4-4.4-10.4-4.4s-3,4.4-10.4,4.4s-10.4-4.4-10.4-4.4s-3,4.4-10.4,4.4
				c-7.4,0-10.4-4.4-10.4-4.4s-3,4.4-10.4,4.4c-7.4,0-10.4-4.4-10.4-4.4s-3,4.4-10.4,4.4c-7.4,0-10.4-4.4-10.4-4.4s-3,4.4-10.4,4.4
				c-7.4,0-10.4-4.4-10.4-4.4s-3,4.4-10.4,4.4s-10.4-4.4-10.4-4.4s-3,4.4-10.4,4.4s-10.4-4.4-10.4-4.4s-3,4.4-10.4,4.4
				s-10.4-4.4-10.4-4.4s-3,4.4-10.4,4.4c-7.4,0-10.4-4.4-10.4-4.4s-3,4.4-10.4,4.4c-7.4,0-10.4-4.4-10.4-4.4s-3,4.4-10.4,4.4
				c-7.4,0-10.4-4.4-10.4-4.4s-3,4.4-10.4,4.4c-7.4,0-10.4-4.4-10.4-4.4s-3,4.4-10.4,4.4c-7.4,0-10.4-4.4-10.4-4.4s-3,4.4-10.4,4.4
				c-7.4,0-10.4-4.4-10.4-4.4s-3,4.4-10.4,4.4s-10.4-4.4-10.4-4.4s-3,4.4-10.4,4.4s-10.4-4.4-10.4-4.4s-3,4.4-10.4,4.4
				s-10.4-4.4-10.4-4.4s-3,4.4-10.4,4.4s-10.4-4.4-10.4-4.4s-3,4.4-10.4,4.4c-7.4,0-10.4-4.4-10.4-4.4s-3,4.4-10.4,4.4
				c-7.4,0-10.4-4.4-10.4-4.4s-3,4.4-10.4,4.4c-7.4,0-10.4-4.4-10.4-4.4s-3,4.4-10.4,4.4c-7.4,0-10.4-4.4-10.4-4.4s-3,4.4-10.4,4.4
				s-10.4-4.4-10.4-4.4s-3,4.4-10.4,4.4s-10.4-4.4-10.4-4.4s-3,4.4-10.4,4.4S272,36.2,272,36.2s-3,4.4-10.4,4.4
				c-7.4,0-10.4-4.4-10.4-4.4s-3,4.4-10.4,4.4c-7.4,0-10.4-4.4-10.4-4.4s-3,4.4-10.4,4.4c-7.4,0-10.4-4.4-10.4-4.4s-3,4.4-10.4,4.4
				c-7.4,0-10.4-4.4-10.4-4.4s-3,4.4-10.4,4.4s-10.4-4.4-10.4-4.4s-3,4.4-10.4,4.4s-10.4-4.4-10.4-4.4s-3,4.4-10.4,4.4
				s-10.4-4.4-10.4-4.4s-3,4.4-10.4,4.4s-10.4-4.4-10.4-4.4s-3,4.4-10.4,4.4c-7.4,0-10.4-4.4-10.4-4.4s-3,4.4-10.4,4.4
				c-7.4,0-10.4-4.4-10.4-4.4s-3,4.4-10.4,4.4c-7.4,0-10.4-4.4-10.4-4.4s-3,4.4-10.4,4.4c-7.4,0-10.4-4.4-10.4-4.4s-3,4.4-10.4,4.4
				S1,36.2,1,36.2V43c0,0,2.7,7.5,10.4,7.5c7.7,0,10.4-7.5,10.4-7.5s2.7,7.5,10.4,7.5c7.7,0,10.4-7.5,10.4-7.5s2.7,7.5,10.4,7.5
				c7.7,0,10.4-7.5,10.4-7.5s2.7,7.5,10.4,7.5c7.7,0,10.4-7.5,10.4-7.5s2.7,7.5,10.4,7.5c7.7,0,10.4-7.5,10.4-7.5s2.7,7.5,10.4,7.5
				c7.7,0,10.4-7.5,10.4-7.5s2.7,7.5,10.4,7.5c7.7,0,10.4-7.5,10.4-7.5s2.7,7.5,10.4,7.5c7.7,0,10.4-7.5,10.4-7.5s2.7,7.5,10.4,7.5
				c7.7,0,10.4-7.5,10.4-7.5s2.7,7.5,10.4,7.5c7.7,0,10.4-7.5,10.4-7.5s2.7,7.5,10.4,7.5c7.7,0,10.4-7.5,10.4-7.5s2.7,7.5,10.4,7.5
				c7.7,0,10.4-7.5,10.4-7.5s2.7,7.5,10.4,7.5c7.7,0,10.4-7.5,10.4-7.5s2.7,7.5,10.4,7.5c7.7,0,10.4-7.5,10.4-7.5s2.7,7.5,10.4,7.5
				c7.7,0,10.4-7.5,10.4-7.5s2.7,7.5,10.4,7.5c7.7,0,10.4-7.5,10.4-7.5s2.7,7.5,10.4,7.5c7.7,0,10.4-7.5,10.4-7.5s2.7,7.5,10.4,7.5
				c7.7,0,10.4-7.5,10.4-7.5s2.7,7.5,10.4,7.5c7.7,0,10.4-7.5,10.4-7.5s2.7,7.5,10.4,7.5c7.7,0,10.4-7.5,10.4-7.5s2.7,7.5,10.4,7.5
				c7.7,0,10.4-7.5,10.4-7.5s2.7,7.5,10.4,7.5c7.7,0,10.4-7.5,10.4-7.5s2.7,7.5,10.4,7.5c7.7,0,10.4-7.5,10.4-7.5s2.7,7.5,10.4,7.5
				c7.7,0,10.4-7.5,10.4-7.5s2.7,7.5,10.4,7.5c7.7,0,10.4-7.5,10.4-7.5s2.7,7.5,10.4,7.5c7.7,0,10.4-7.5,10.4-7.5s2.7,7.5,10.4,7.5
				c7.7,0,10.4-7.5,10.4-7.5s2.7,7.5,10.4,7.5c7.7,0,10.4-7.5,10.4-7.5s2.7,7.5,10.4,7.5c7.7,0,10.4-7.5,10.4-7.5s2.7,7.5,10.4,7.5
				c7.7,0,10.4-7.5,10.4-7.5s2.7,7.5,10.4,7.5c7.7,0,10.4-7.5,10.4-7.5s2.7,7.5,10.4,7.5c7.7,0,10.4-7.5,10.4-7.5s2.7,7.5,10.4,7.5
				c7.7,0,10.4-7.5,10.4-7.5s2.7,7.5,10.4,7.5c7.7,0,10.4-7.5,10.4-7.5s2.7,7.5,10.4,7.5c7.7,0,10.4-7.5,10.4-7.5s2.7,7.5,10.4,7.5
				c7.7,0,10.4-7.5,10.4-7.5s2.7,7.5,10.4,7.5c7.7,0,10.4-7.5,10.4-7.5s2.7,7.5,10.4,7.5c7.7,0,10.4-7.5,10.4-7.5s2.7,7.5,10.4,7.5
				c7.7,0,10.4-7.5,10.4-7.5s2.7,7.5,10.4,7.5c7.7,0,10.4-7.5,10.4-7.5s2.7,7.5,10.4,7.5s10.4-7.5,10.4-7.5s2.7,7.5,10.4,7.5
				c7.7,0,10.4-7.5,10.4-7.5s2.7,7.5,10.4,7.5c7.7,0,10.4-7.5,10.4-7.5s2.7,7.5,10.4,7.5c7.7,0,10.4-7.5,10.4-7.5s2.7,7.5,10.4,7.5
				c7.7,0,10.4-7.5,10.4-7.5s2.7,7.5,10.4,7.5c7.7,0,10.4-7.5,10.4-7.5s2.7,7.5,10.4,7.5c7.7,0,10.4-7.5,10.4-7.5s2.7,7.5,10.4,7.5
				c7.7,0,10.4-7.5,10.4-7.5s2.7,7.5,10.4,7.5c7.7,0,10.4-7.5,10.4-7.5s2.7,7.5,10.4,7.5s10.4-7.5,10.4-7.5s2.7,7.5,10.4,7.5
				s10.4-7.5,10.4-7.5s2.7,7.5,10.4,7.5c7.7,0,10.4-7.5,10.4-7.5s2.7,7.5,10.4,7.5c7.7,0,10.4-7.5,10.4-7.5s2.7,7.5,10.4,7.5
				s10.4-7.5,10.4-7.5s2.7,7.5,10.4,7.5s10.4-7.5,10.4-7.5s2.7,7.5,10.4,7.5c7.7,0,10.4-7.5,10.4-7.5s2.7,7.5,10.4,7.5
				s10.4-7.5,10.4-7.5s2.7,7.5,10.4,7.5c6.5,0,9.4-5.2,10.2-6.9v-7.1C1209,37.5,1205.9,40.6,1199.6,40.6z"/>
		</g>
	</g>
</g>
</svg>
