<?xml version="1.0" encoding="utf-8"?>
<!-- Generator: Adobe Illustrator 24.1.0, SVG Export Plug-In . SVG Version: 6.00 Build 0)  -->
<svg version="1.1" id="Layer_1" xmlns="http://www.w3.org/2000/svg" xmlns:xlink="http://www.w3.org/1999/xlink" x="0px" y="0px"
	 viewBox="0 0 371.3 56.3" style="enable-background:new 0 0 371.3 56.3;" xml:space="preserve">
<g>
	<path d="M19.5,24.8c-0.6,0.2-0.9,0.6-0.9,1.2v0.2c0,0.1,0,0.2,0,0.2c0.3,0,0.6,0,1,0h0.8c2.7,0,5.2,0.4,7.5,1.3
		c2.3,0.9,4.2,2.3,5.7,4.3c1.6,2.2,2.5,5,2.5,8.4c0,5.3-1.7,9.2-5,11.9c-3.3,2.7-7.7,4-13.3,4c-5.5,0-9.9-1-13-3
		c-3.1-2-4.7-5-4.7-8.9c0-1.4,0.3-2.8,0.8-4s1.2-2,1.9-2.5c1.3,1.2,3.2,2.2,5.6,3.1c2.4,0.9,5,1.3,7.8,1.3c1.1,0,1.7-0.3,1.7-1
		c0-0.3,0-0.6-0.1-0.8c-0.2,0-0.4,0-0.6,0H17c-5,0-8.9-1.1-11.9-3.2C1.7,34.9,0,31.4,0,27c0-4.5,1.5-8.1,4.5-10.8
		c3.4-3,8-4.6,13.8-4.6c2.9,0,5.6,0.3,8.1,1c2.5,0.7,4.6,1.6,6.4,2.7c0.4,1.1,0.7,2.6,0.7,4.7c0,3.1-0.8,5.6-2.4,7.2
		c-1.2-0.7-2.7-1.3-4.4-1.8s-3.3-0.7-4.7-0.7C20.7,24.6,19.9,24.7,19.5,24.8z"/>
	<path d="M79,36c0,1.9,0.2,3.4,0.6,4.5c0.4,1.1,1,2,2,2.7c0,0.1,0,0.4,0,0.7v0.7c0,3.6-0.9,6.3-2.8,8.3s-4.3,3-7.2,3
		c-2.9,0-5.3-0.9-7.2-2.7c-2.1-2.1-3.2-5.3-3.2-9.5c0-1.8,0.1-3.4,0.2-4.8c0.2-1.4,0.3-2.4,0.3-3c0.1-0.6,0.1-1.1,0.2-1.7
		s0.1-1.3,0.1-2.3s-0.1-1.7-0.4-2.2s-0.6-0.7-1-0.7c-0.4,0-0.8,0.1-1.1,0.3l0.5,6.3c-0.4,2.6-0.6,5.4-0.6,8.3c0,2.9,0.6,5.6,1.8,8
		c-2.3,2.6-5.5,3.9-9.7,3.9c-2.4,0-4.4-0.7-6.2-2c-2-1.5-3-3.6-3-6.1V2.5c1.1-0.7,2.5-1.3,4.1-1.8C48,0.2,49.6,0,51.2,0
		c2.7,0,4.9,0.6,6.7,1.7c2,1.4,3,3.3,3,5.9v3.7c-2,0.1-4,0.8-5.9,1.9c-1.6,1-2.4,2-2.4,2.8c0,0.3,0.1,0.5,0.3,0.8
		c0.2,0.2,0.4,0.4,0.7,0.4c1-1.3,2.4-2.3,4.2-3.2c1.8-0.9,3.9-1.3,6.4-1.3s4.7,0.4,6.6,1.2c2.5,1,4.4,2.6,5.9,4.7
		c1.7,2.6,2.6,5.8,2.6,9.7L79,36z"/>
	<path d="M92,50.7c-3.8-4.1-5.8-9.6-5.8-16.6c0-7,1.8-12.5,5.4-16.5c3.6-4,8.4-6.1,14.3-6.1c5.9,0,10.6,2.1,14.3,6.3
		c3.6,4.2,5.4,9.7,5.4,16.4c0,6.7-1.7,12.1-5.2,16.1c-3.5,4-8.2,6-14.2,6S95.5,54.4,92,50.7z M105.2,33.6v6.8
		c0.2,0.2,0.4,0.3,0.8,0.3c0.4,0,0.6-0.1,0.8-0.4c0.2-0.3,0.2-0.8,0.2-1.5v-5.5c0-2.5-0.1-4.1-0.3-4.9c-0.2-0.8-0.5-1.2-1.1-1.2
		c-0.3,0-0.6,0.1-0.8,0.4C105.1,30,105.2,32,105.2,33.6z"/>
	<path d="M150.9,38.2c0.3,0,0.6-0.1,0.9-0.4c-0.2-0.9-0.4-2.2-0.4-4V14.8c2.5-1.6,5.5-2.5,9-2.5c2,0,3.7,0.3,5.2,0.9
		c1.5,0.6,2.6,1.3,3.4,2.3v20.1c0,3.8,0.8,6.3,2.5,7.5c0,0.1,0,0.4,0,0.7v0.7c0,3.8-0.9,6.6-2.7,8.5c-1.6,1.8-3.9,2.7-6.8,2.7
		c-1.8,0-3.4-0.5-4.9-1.4c-1.5-0.9-2.6-2.2-3.3-3.9c-0.8,0-1.2,0.4-1.2,1.3c0,0.6,0.3,1.2,0.8,1.8c-0.8,0.7-1.7,1.2-2.7,1.6
		s-2.6,0.6-4.7,0.6c-2.1,0-4-0.5-6-1.4c-2.4-1.1-4.3-2.9-5.6-5.2c-1.6-2.8-2.4-6.3-2.4-10.6v-9.7c-1.2-2.3-1.8-4.8-1.8-7.6
		c0-1.4,0.2-2.9,0.5-4.4c0.3-1.5,0.9-2.9,1.6-4.1h7.7c2.9,0,5.2,0.8,6.8,2.3c1.7,1.5,2.5,3.8,2.5,6.9v12.5
		C149.6,37,150,38.2,150.9,38.2z"/>
	<path d="M180.4,30.7h2.2c1.2,0,1.8-0.4,1.8-1.3c0-0.1,0-0.3-0.1-0.5h-7.9c-0.5-1.8-0.8-3.8-0.8-6.1s0.2-4,0.5-5.4
		c1.3-0.9,3.2-2.3,5.5-4.3c0.7-1.8,1.5-4.5,2.6-8.4c0.1-0.5,0.3-1,0.5-1.5c1.8-0.5,3.9-0.8,6.3-0.8s4.7,0.3,6.9,0.8v9.5h6.1
		c1.4,2.3,2,4.9,2,8c0,1.4-0.2,2.8-0.5,4.3s-0.9,2.7-1.5,3.8h-5v5.8c0,3.3,1.3,4.9,3.8,4.9h1.5c0.5,2,0.7,3.7,0.7,5.1
		c0,3.6-1,6.3-3,8.2c-2,1.9-5,2.8-8.8,2.8s-6.9-1.2-9.2-3.5s-3.4-5.8-3.4-10.4V30.7z"/>
	<path d="M216.1,50.7c-3.8-4.1-5.8-9.6-5.8-16.6c0-7,1.8-12.5,5.4-16.5c3.6-4,8.4-6.1,14.3-6.1s10.6,2.1,14.3,6.3
		c3.6,4.2,5.4,9.7,5.4,16.4c0,6.7-1.7,12.1-5.2,16.1c-3.5,4-8.2,6-14.2,6S219.6,54.4,216.1,50.7z M229.2,33.6v6.8
		c0.2,0.2,0.4,0.3,0.8,0.3s0.6-0.1,0.8-0.4s0.2-0.8,0.2-1.5v-5.5c0-2.5-0.1-4.1-0.3-4.9c-0.2-0.8-0.5-1.2-1.1-1.2
		c-0.3,0-0.6,0.1-0.8,0.4C229.1,30,229.2,32,229.2,33.6z"/>
	<path d="M275,38.2c0.3,0,0.6-0.1,0.9-0.4c-0.2-0.9-0.4-2.2-0.4-4V14.8c2.5-1.6,5.5-2.5,9-2.5c2,0,3.7,0.3,5.2,0.9s2.6,1.3,3.4,2.3
		v20.1c0,3.8,0.8,6.3,2.5,7.5c0,0.1,0,0.4,0,0.7v0.7c0,3.8-0.9,6.6-2.7,8.5c-1.6,1.8-3.9,2.7-6.8,2.7c-1.8,0-3.4-0.5-4.9-1.4
		c-1.5-0.9-2.6-2.2-3.3-3.9c-0.8,0-1.2,0.4-1.2,1.3c0,0.6,0.3,1.2,0.8,1.8c-0.8,0.7-1.7,1.2-2.7,1.6s-2.6,0.6-4.7,0.6s-4-0.5-6-1.4
		c-2.4-1.1-4.3-2.9-5.6-5.2c-1.6-2.8-2.4-6.3-2.4-10.6v-9.7c-1.2-2.3-1.8-4.8-1.8-7.6c0-1.4,0.2-2.9,0.5-4.4
		c0.3-1.5,0.9-2.9,1.6-4.1h7.7c2.9,0,5.2,0.8,6.8,2.3c1.7,1.5,2.5,3.8,2.5,6.9v12.5C273.7,37,274.1,38.2,275,38.2z"/>
	<path d="M304.5,30.7h2.2c1.2,0,1.8-0.4,1.8-1.3c0-0.1,0-0.3-0.1-0.5h-7.9c-0.5-1.8-0.8-3.8-0.8-6.1s0.2-4,0.5-5.4
		c1.3-0.9,3.2-2.3,5.5-4.3c0.7-1.8,1.5-4.5,2.6-8.4c0.1-0.5,0.3-1,0.5-1.5c1.8-0.5,3.9-0.8,6.3-0.8s4.7,0.3,6.9,0.8v9.5h6.1
		c1.4,2.3,2,4.9,2,8c0,1.4-0.2,2.8-0.5,4.3s-0.9,2.7-1.5,3.8h-5v5.8c0,3.3,1.3,4.9,3.8,4.9h1.5c0.5,2,0.7,3.7,0.7,5.1
		c0,3.6-1,6.3-3,8.2c-2,1.9-5,2.8-8.8,2.8s-6.9-1.2-9.2-3.5s-3.4-5.8-3.4-10.4V30.7z"/>
	<path d="M354.6,24.8c-0.6,0.2-0.9,0.6-0.9,1.2v0.2c0,0.1,0,0.2,0,0.2c0.3,0,0.6,0,1,0h0.8c2.7,0,5.2,0.4,7.5,1.3
		c2.3,0.9,4.2,2.3,5.7,4.3c1.6,2.2,2.5,5,2.5,8.4c0,5.3-1.7,9.2-5,11.9c-3.3,2.7-7.7,4-13.3,4s-9.9-1-13-3c-3.1-2-4.7-5-4.7-8.9
		c0-1.4,0.3-2.8,0.8-4s1.2-2,1.9-2.5c1.3,1.2,3.2,2.2,5.6,3.1s5,1.3,7.8,1.3c1.1,0,1.7-0.3,1.7-1c0-0.3,0-0.6-0.1-0.8
		c-0.2,0-0.4,0-0.6,0h-0.4c-5,0-8.9-1.1-11.9-3.2c-3.4-2.4-5.1-5.9-5.1-10.4c0-4.5,1.5-8.1,4.5-10.8c3.4-3,8-4.6,13.8-4.6
		c2.9,0,5.6,0.3,8.1,1c2.5,0.7,4.6,1.6,6.4,2.7c0.4,1.1,0.7,2.6,0.7,4.7c0,3.1-0.8,5.6-2.4,7.2c-1.2-0.7-2.7-1.3-4.4-1.8
		s-3.3-0.7-4.7-0.7S355,24.7,354.6,24.8z"/>
</g>
</svg>
