<?xml version="1.0" encoding="utf-8"?>
<!-- Generator: Adobe Illustrator 24.1.0, SVG Export Plug-In . SVG Version: 6.00 Build 0)  -->
<svg version="1.1" id="Layer_1" xmlns="http://www.w3.org/2000/svg" xmlns:xlink="http://www.w3.org/1999/xlink" x="0px" y="0px"
	 viewBox="0 0 1800 387" style="enable-background:new 0 0 1800 387;" xml:space="preserve">
<style type="text/css">
	.st0{fill:#f4f4f4;}
	.st1{fill:none;}
</style>
<g>
	<path class="st0" d="M-0.2-0.3v387.6H1800V-0.3H-0.2z M648.1,232.2c-5.5,3.8-12.1,5.6-19.9,5.6c-7.7,0-14.2-1.4-19.4-4.2
		c-5.3-3-7.9-6.6-7.9-11c0-2.6,1-4.8,3-6.5c2-1.7,4.4-2.6,7.2-2.6c4.4,0,7.5,1.4,9.4,4.1c-1.4,1.1-2,2.6-2,4.4
		c0,1.8,0.9,3.3,2.6,4.3c1.8,1,4.1,1.5,7,1.5c2.9,0,5.2-0.6,6.9-1.7c1.7-1.2,2.6-2.7,2.6-4.5c0-1.8-1.2-3.6-3.5-5.2
		c-2.3-1.6-5.1-3.1-8.4-4.6c-3.3-1.4-6.6-3-9.8-4.7c-3.3-1.7-6.1-3.9-8.4-6.5c-2.3-2.7-3.5-5.7-3.5-8.9c0-5.2,2.5-9.7,7.6-13.5
		c5-3.8,11-5.7,17.9-5.7c6.9,0,12.7,1.3,17.2,3.8c4.6,2.6,6.8,5.8,6.8,9.7c0,2.6-0.8,4.7-2.3,6.1c-1.5,1.4-3.7,2.2-6.5,2.2
		c-2.8,0-5.5-1-8-2.9c1-3.3,0.6-5.8-1.4-7.4c-1.3-1-3-1.6-5.2-1.6c-2.2,0-4,0.5-5.3,1.4c-1.3,0.9-2,2.3-2,4.1c0,1.8,1.2,3.6,3.5,5.2
		c2.3,1.6,5.1,3.2,8.4,4.6c3.3,1.4,6.6,2.9,9.8,4.6c3.3,1.6,6.1,3.8,8.4,6.4c2.3,2.6,3.5,5.6,3.5,9
		C656.3,223.6,653.6,228.5,648.1,232.2z M720.4,237.9c-7.8,0-11.8-4.8-11.8-14.3v-26.8c0-2.9-0.7-5.1-2.1-6.8
		c-1.4-1.6-3.4-2.5-5.9-2.5c-2.6,0-5,1.2-7.4,3.5c-2.4,2.4-4.1,5.9-5.2,10.5v22.6c0,4.3,1.3,7.2,4,8.5c-3,3.4-6.7,5.2-11,5.2
		c-7.8,0-11.8-4.8-11.8-14.3V156c0-4-1.4-6.8-4.1-8.5c3-3.4,6.7-5,11-5c7.9,0,11.9,4.8,11.9,14.3v28.2c2.2-4.1,5.1-7.2,8.9-9.3
		c3.8-2.1,8.2-3.2,13.2-3.2c5,0,9.1,1.8,12.4,5.5c3.3,3.7,4.9,9,4.9,16.1v30.1c0,4.3,1.3,7.2,3.8,8.5
		C728.5,236.1,724.8,237.9,720.4,237.9z M795,229.3c-5.7,5.7-13.2,8.5-22.3,8.5c-9.2,0-16.6-2.8-22.3-8.5
		c-5.7-5.7-8.5-13.8-8.5-24.2c0-10.5,2.8-18.5,8.5-24.2c5.7-5.6,13.1-8.5,22.3-8.5c9.2,0,16.6,2.8,22.3,8.5
		c5.7,5.6,8.5,13.7,8.5,24.2C803.6,215.6,800.7,223.7,795,229.3z M869.9,237.9c-6.5,0-10.3-3.2-11.4-9.7c-4.1,6.5-9.7,9.7-17,9.7
		c-7.2,0-12.9-1.8-16.9-5.5c-4-3.7-6-9-6-16.1V186c0-4.2-1.4-7-4.1-8.4c3-3.4,6.7-5.2,10.9-5.2c4.2,0,7.3,1.2,9.2,3.5
		c1.9,2.3,2.9,5.9,2.9,10.8v27.6c0,6.2,3.1,9.2,9.4,9.2c5.4,0,9.1-3,11.3-9.1V186c0-4.2-1.4-7-4.1-8.4c3-3.4,6.7-5.2,10.9-5.2
		s7.3,1.2,9.2,3.5c1.9,2.3,2.9,5.9,2.9,10.8v37.4c0,4.3,1.3,7.2,3.8,8.5C878,236.1,874.3,237.9,869.9,237.9z M930.3,233.6
		c-4,2.8-8.9,4.3-14.8,4.3s-10.7-1.5-14.3-4.4c-3.7-3-5.5-7.5-5.5-13.6v-34.6c-2.9-0.1-5-0.8-6.5-2.1c-1.4-1.3-2.2-3-2.2-5
		c0-2,0.8-3.6,2.5-4.8c1.9,0.2,4,0.4,6.1,0.4v-3.6c0-4.2-1.4-7-4.1-8.4c3-3.4,6.7-5.2,10.9-5.2s7.3,1.2,9.2,3.5
		c1.9,2.3,2.9,5.9,2.9,10.8v2.9h18.1c0.6,0.6,0.8,1.4,0.8,2.4c0,2.5-1.3,4.6-4,6.4c-2.7,1.8-7.3,2.7-14,2.7h-1v32.4
		c0,5,2,7.6,5.9,7.6c4.3,0,8.3-2,12-5.9c1.1,0,2.1,0.5,2.8,1.4c0.8,0.9,1.1,2.1,1.1,3.7C936.3,227.7,934.3,230.8,930.3,233.6z
		 M996.6,229.3c-5.7,5.7-13.2,8.5-22.3,8.5c-9.2,0-16.6-2.8-22.3-8.5c-5.7-5.7-8.5-13.8-8.5-24.2c0-10.5,2.8-18.5,8.5-24.2
		c5.7-5.6,13.1-8.5,22.3-8.5c9.2,0,16.6,2.8,22.3,8.5c5.7,5.6,8.5,13.7,8.5,24.2C1005.2,215.6,1002.3,223.7,996.6,229.3z
		 M1071.5,237.9c-6.5,0-10.3-3.2-11.4-9.7c-4.1,6.5-9.7,9.7-17,9.7c-7.2,0-12.9-1.8-16.9-5.5c-4-3.7-6-9-6-16.1V186
		c0-4.2-1.4-7-4.1-8.4c3-3.4,6.7-5.2,10.9-5.2c4.2,0,7.3,1.2,9.2,3.5c1.9,2.3,2.9,5.9,2.9,10.8v27.6c0,6.2,3.1,9.2,9.4,9.2
		c5.4,0,9.1-3,11.3-9.1V186c0-4.2-1.4-7-4.1-8.4c3-3.4,6.7-5.2,10.9-5.2s7.3,1.2,9.2,3.5c1.9,2.3,2.9,5.9,2.9,10.8v37.4
		c0,4.3,1.3,7.2,3.8,8.5C1079.6,236.1,1075.9,237.9,1071.5,237.9z M1131.9,233.6c-4,2.8-8.9,4.3-14.8,4.3s-10.7-1.5-14.3-4.4
		c-3.7-3-5.5-7.5-5.5-13.6v-34.6c-2.9-0.1-5-0.8-6.5-2.1c-1.4-1.3-2.2-3-2.2-5c0-2,0.8-3.6,2.5-4.8c1.9,0.2,4,0.4,6.1,0.4v-3.6
		c0-4.2-1.4-7-4.1-8.4c3-3.4,6.7-5.2,10.9-5.2s7.3,1.2,9.2,3.5c1.9,2.3,2.9,5.9,2.9,10.8v2.9h18.1c0.6,0.6,0.8,1.4,0.8,2.4
		c0,2.5-1.3,4.6-4,6.4c-2.7,1.8-7.3,2.7-14,2.7h-1v32.4c0,5,2,7.6,5.9,7.6c4.3,0,8.3-2,12-5.9c1.1,0,2.1,0.5,2.8,1.4
		c0.8,0.9,1.1,2.1,1.1,3.7C1137.9,227.7,1135.9,230.8,1131.9,233.6z M1190.7,232.2c-5.5,3.8-12.1,5.6-19.9,5.6
		c-7.7,0-14.2-1.4-19.4-4.2c-5.3-3-7.9-6.6-7.9-11c0-2.6,1-4.8,3-6.5c2-1.7,4.4-2.6,7.2-2.6c4.4,0,7.5,1.4,9.4,4.1
		c-1.4,1.1-2,2.6-2,4.4c0,1.8,0.9,3.3,2.6,4.3c1.8,1,4.1,1.5,7,1.5s5.2-0.6,6.9-1.7c1.7-1.2,2.6-2.7,2.6-4.5c0-1.8-1.2-3.6-3.5-5.2
		c-2.3-1.6-5.1-3.1-8.4-4.6c-3.3-1.4-6.6-3-9.8-4.7c-3.3-1.7-6.1-3.9-8.4-6.5c-2.3-2.7-3.5-5.7-3.5-8.9c0-5.2,2.5-9.7,7.6-13.5
		c5-3.8,11-5.7,17.9-5.7c6.9,0,12.7,1.3,17.2,3.8c4.6,2.6,6.8,5.8,6.8,9.7c0,2.6-0.8,4.7-2.3,6.1c-1.5,1.4-3.7,2.2-6.5,2.2
		c-2.8,0-5.5-1-8-2.9c1-3.3,0.6-5.8-1.4-7.4c-1.3-1-3-1.6-5.2-1.6c-2.2,0-4,0.5-5.3,1.4c-1.3,0.9-2,2.3-2,4.1c0,1.8,1.2,3.6,3.5,5.2
		c2.3,1.6,5.1,3.2,8.4,4.6c3.3,1.4,6.6,2.9,9.8,4.6c3.3,1.6,6.1,3.8,8.4,6.4c2.3,2.6,3.5,5.6,3.5,9
		C1199,223.6,1196.2,228.5,1190.7,232.2z"/>
	<path class="st0" d="M972.8,181.6c-6.9,0-10.3,6-10.3,18c0,1.8,0.1,3.6,0.2,5.5c1,15.8,5.4,23.6,13.2,23.6c6.9,0,10.3-6,10.3-18.1
		c0-1.7-0.1-3.5-0.2-5.5C984.8,189.4,980.4,181.6,972.8,181.6z"/>
	<path class="st0" d="M771.2,181.6c-6.9,0-10.3,6-10.3,18c0,1.8,0.1,3.6,0.2,5.5c1,15.8,5.4,23.6,13.2,23.6c6.9,0,10.3-6,10.3-18.1
		c0-1.7-0.1-3.5-0.2-5.5C783.3,189.4,778.9,181.6,771.2,181.6z"/>
	<path class="st1" d="M644.5,202.3c-3.3-1.6-6.6-3.2-9.8-4.6c-3.3-1.4-6.1-2.9-8.4-4.6c-2.3-1.6-3.5-3.4-3.5-5.2
		c0-1.8,0.7-3.2,2-4.1c1.3-0.9,3.1-1.4,5.3-1.4c2.2,0,3.9,0.5,5.2,1.6c2,1.7,2.5,4.2,1.4,7.4c2.6,1.9,5.2,2.9,8,2.9
		c2.8,0,5-0.7,6.5-2.2c1.5-1.4,2.3-3.5,2.3-6.1c0-3.9-2.3-7.2-6.8-9.7c-4.6-2.6-10.3-3.8-17.2-3.8c-6.9,0-12.9,1.9-17.9,5.7
		c-5,3.8-7.6,8.3-7.6,13.5c0,3.3,1.2,6.3,3.5,8.9c2.3,2.7,5.1,4.9,8.4,6.5c3.3,1.7,6.6,3.2,9.8,4.7c3.3,1.4,6.1,3,8.4,4.6
		c2.3,1.6,3.5,3.3,3.5,5.2c0,1.8-0.9,3.3-2.6,4.5c-1.7,1.2-4,1.7-6.9,1.7c-2.9,0-5.2-0.5-7-1.5c-1.8-1-2.6-2.4-2.6-4.3
		c0-1.8,0.7-3.3,2-4.4c-1.8-2.7-5-4.1-9.4-4.1c-2.8,0-5.2,0.9-7.2,2.6c-2,1.7-3,3.9-3,6.5c0,4.4,2.6,8.1,7.9,11
		c5.2,2.8,11.7,4.2,19.4,4.2c7.7,0,14.3-1.9,19.9-5.6c5.5-3.8,8.3-8.6,8.3-14.5c0-3.4-1.2-6.4-3.5-9
		C650.5,206.1,647.7,203.9,644.5,202.3z"/>
	<path class="st1" d="M727.5,224.2v-30.1c0-7-1.6-12.4-4.9-16.1c-3.3-3.7-7.4-5.5-12.4-5.5c-5,0-9.4,1.1-13.2,3.2
		c-3.8,2.1-6.8,5.2-8.9,9.3v-28.2c0-9.5-4-14.3-11.9-14.3c-4.3,0-8,1.7-11,5c2.7,1.7,4.1,4.5,4.1,8.5v67.6c0,9.5,3.9,14.3,11.8,14.3
		c4.3,0,8-1.7,11-5.2c-2.6-1.4-4-4.2-4-8.5v-22.6c1-4.6,2.8-8.1,5.2-10.5c2.4-2.4,4.9-3.5,7.4-3.5c2.6,0,4.5,0.8,5.9,2.5
		c1.4,1.6,2.1,3.9,2.1,6.8v26.8c0,9.5,3.9,14.3,11.8,14.3c4.4,0,8-1.7,10.9-5.2C728.8,231.3,727.5,228.5,727.5,224.2z"/>
	<path class="st1" d="M772.7,172.5c-9.2,0-16.6,2.8-22.3,8.5c-5.7,5.6-8.5,13.7-8.5,24.2c0,10.5,2.8,18.6,8.5,24.2
		c5.7,5.7,13.1,8.5,22.3,8.5c9.2,0,16.6-2.8,22.3-8.5c5.7-5.7,8.6-13.8,8.6-24.2c0-10.5-2.8-18.5-8.5-24.2
		C789.4,175.3,781.9,172.5,772.7,172.5z M774.3,228.7c-7.8,0-12.2-7.9-13.2-23.6c-0.2-1.9-0.2-3.8-0.2-5.5c0-12,3.4-18,10.3-18
		c7.7,0,12.1,7.8,13.2,23.5c0.2,2,0.2,3.8,0.2,5.5C784.6,222.7,781.2,228.7,774.3,228.7z"/>
	<path class="st1" d="M877,224.2v-37.4c0-4.9-1-8.5-2.9-10.8c-1.9-2.3-5-3.5-9.2-3.5s-7.8,1.7-10.9,5.2c2.7,1.4,4.1,4.2,4.1,8.4
		v28.4c-2.2,6.1-5.9,9.1-11.3,9.1c-6.2,0-9.4-3.1-9.4-9.2v-27.6c0-4.9-1-8.5-2.9-10.8c-1.9-2.3-5-3.5-9.2-3.5
		c-4.2,0-7.8,1.7-10.9,5.2c2.7,1.4,4.1,4.2,4.1,8.4v30.2c0,7,2,12.4,6,16.1c4,3.7,9.6,5.5,16.9,5.5c7.2,0,12.9-3.2,17-9.7
		c1.1,6.5,4.9,9.7,11.4,9.7c4.4,0,8-1.7,10.9-5.2C878.3,231.3,877,228.5,877,224.2z"/>
	<path class="st1" d="M932.3,219.4c-3.7,3.9-7.7,5.9-12,5.9c-3.9,0-5.9-2.5-5.9-7.6v-32.4h1c6.6,0,11.3-0.9,14-2.7
		c2.7-1.8,4-3.9,4-6.4c0-1-0.3-1.8-0.8-2.4h-18.1v-2.9c0-4.9-1-8.5-2.9-10.8c-1.9-2.3-5-3.5-9.2-3.5s-7.8,1.7-10.9,5.2
		c2.7,1.4,4.1,4.2,4.1,8.4v3.6c-2.2,0-4.2-0.1-6.1-0.4c-1.7,1.2-2.5,2.8-2.5,4.8c0,2,0.7,3.7,2.2,5c1.4,1.3,3.6,2,6.5,2.1v34.6
		c0,6.1,1.8,10.6,5.5,13.6c3.7,3,8.5,4.4,14.3,4.4s10.8-1.4,14.8-4.3c4-2.8,6-5.9,6-9.2c0-1.5-0.4-2.7-1.1-3.7
		C934.4,219.8,933.4,219.4,932.3,219.4z"/>
	<path class="st1" d="M974.3,172.5c-9.2,0-16.6,2.8-22.3,8.5c-5.7,5.6-8.5,13.7-8.5,24.2c0,10.5,2.8,18.6,8.5,24.2
		c5.7,5.7,13.1,8.5,22.3,8.5c9.2,0,16.6-2.8,22.3-8.5c5.7-5.7,8.6-13.8,8.6-24.2c0-10.5-2.8-18.5-8.5-24.2
		C991,175.3,983.5,172.5,974.3,172.5z M975.9,228.7c-7.8,0-12.2-7.9-13.2-23.6c-0.2-1.9-0.2-3.8-0.2-5.5c0-12,3.4-18,10.3-18
		c7.7,0,12.1,7.8,13.2,23.5c0.2,2,0.2,3.8,0.2,5.5C986.2,222.7,982.8,228.7,975.9,228.7z"/>
	<path class="st1" d="M1078.6,224.2v-37.4c0-4.9-1-8.5-2.9-10.8c-1.9-2.3-5-3.5-9.2-3.5s-7.8,1.7-10.9,5.2c2.7,1.4,4.1,4.2,4.1,8.4
		v28.4c-2.2,6.1-5.9,9.1-11.3,9.1c-6.2,0-9.4-3.1-9.4-9.2v-27.6c0-4.9-1-8.5-2.9-10.8c-1.9-2.3-5-3.5-9.2-3.5
		c-4.2,0-7.8,1.7-10.9,5.2c2.7,1.4,4.1,4.2,4.1,8.4v30.2c0,7,2,12.4,6,16.1c4,3.7,9.6,5.5,16.9,5.5c7.2,0,12.9-3.2,17-9.7
		c1.1,6.5,4.9,9.7,11.4,9.7c4.4,0,8-1.7,10.9-5.2C1079.9,231.3,1078.6,228.5,1078.6,224.2z"/>
	<path class="st1" d="M1133.9,219.4c-3.7,3.9-7.7,5.9-12,5.9c-3.9,0-5.9-2.5-5.9-7.6v-32.4h1c6.6,0,11.3-0.9,14-2.7
		c2.7-1.8,4-3.9,4-6.4c0-1-0.3-1.8-0.8-2.4H1116v-2.9c0-4.9-1-8.5-2.9-10.8c-1.9-2.3-5-3.5-9.2-3.5s-7.8,1.7-10.9,5.2
		c2.7,1.4,4.1,4.2,4.1,8.4v3.6c-2.2,0-4.2-0.1-6.1-0.4c-1.7,1.2-2.5,2.8-2.5,4.8c0,2,0.7,3.7,2.2,5c1.4,1.3,3.6,2,6.5,2.1v34.6
		c0,6.1,1.8,10.6,5.5,13.6c3.7,3,8.5,4.4,14.3,4.4s10.8-1.4,14.8-4.3c4-2.8,6-5.9,6-9.2c0-1.5-0.4-2.7-1.1-3.7
		C1136,219.8,1135,219.4,1133.9,219.4z"/>
	<path class="st1" d="M1187.1,202.3c-3.3-1.6-6.6-3.2-9.8-4.6c-3.3-1.4-6.1-2.9-8.4-4.6c-2.3-1.6-3.5-3.4-3.5-5.2
		c0-1.8,0.7-3.2,2-4.1c1.3-0.9,3.1-1.4,5.3-1.4c2.2,0,3.9,0.5,5.2,1.6c2,1.7,2.5,4.2,1.4,7.4c2.6,1.9,5.2,2.9,8,2.9
		c2.8,0,5-0.7,6.5-2.2c1.5-1.4,2.3-3.5,2.3-6.1c0-3.9-2.3-7.2-6.8-9.7c-4.6-2.6-10.3-3.8-17.2-3.8c-6.9,0-12.9,1.9-17.9,5.7
		c-5,3.8-7.6,8.3-7.6,13.5c0,3.3,1.2,6.3,3.5,8.9c2.3,2.7,5.1,4.9,8.4,6.5c3.3,1.7,6.6,3.2,9.8,4.7c3.3,1.4,6.1,3,8.4,4.6
		c2.3,1.6,3.5,3.3,3.5,5.2c0,1.8-0.9,3.3-2.6,4.5c-1.7,1.2-4,1.7-6.9,1.7s-5.2-0.5-7-1.5c-1.8-1-2.6-2.4-2.6-4.3
		c0-1.8,0.7-3.3,2-4.4c-1.8-2.7-5-4.1-9.4-4.1c-2.8,0-5.2,0.9-7.2,2.6c-2,1.7-3,3.9-3,6.5c0,4.4,2.6,8.1,7.9,11
		c5.2,2.8,11.7,4.2,19.4,4.2c7.7,0,14.3-1.9,19.9-5.6c5.5-3.8,8.3-8.6,8.3-14.5c0-3.4-1.2-6.4-3.5-9
		C1193.2,206.1,1190.4,203.9,1187.1,202.3z"/>
</g>
</svg>
